<svg width="584" height="584" viewBox="0 0 584 584" fill="none" xmlns="http://www.w3.org/2000/svg">
<path d="M359.836 513L351 497.254L395.182 481L405 500.81L359.836 513Z" fill="#EBD3C5" stroke="black"/>
<path d="M291.452 515L286 498.686L336.557 489L343 511.431L291.452 515Z" fill="#EBD3C5" stroke="black"/>
<path d="M380 111L378.5 98.5L402 94.5L404 99L403.5 109.5L402 116L407 119.5L409 118L412.5 112L416.5 113.5L418.5 118L418 124L416.5 127L418 132.5L423 138L430 139L439 155.5L438 159L417 161L402.5 168L399.5 148.5L411 138L409 136.5L396 148.5L388 148L382.5 140L380 126L375.5 125.5L380 118V111Z" fill="#EBD3C5" stroke="black"/>
<path d="M191 223.5L190 216L192 211.5L195.5 203L202 197L211 194.5L220 194L233 197L271 217L291.5 231L313 249L326 254.5L340.5 257.5L338 260.5L327 265.5L315.5 268L258 265.5L227.5 239L221.5 235.5L219 239L210.5 240.5L203 239C201.667 239.5 198.9 240.6 198.5 241C198.1 241.4 195 244.167 193.5 245.5L191 246L187.5 245L185.5 242.5V238L193 229L191 223.5Z" fill="#EBD3C5" stroke="black"/>
<path d="M218.5 299.5H161.5L166 293L183.5 281L213 270.5L234 268.5H259.5L297 270.5H315.5L330 267L340 263L346 259.5L355.5 240H359.5L368.5 241.5L380.5 247L388.5 254L395 263L399 273.5L403.5 287.5V299.5L385.5 318L364.5 331L351 334H334L218.5 299.5Z" fill="#EBD3C5" stroke="black"/>
<g filter="url(#filter0_d_298_6653)">
<path d="M344.436 511L292.121 514.304L298.158 535.232H287.594H281.558L276.527 537.986L273.509 542.942L272 549H355L344.436 511Z" fill="#CFCFCF"/>
<path d="M344.436 511L292.121 514.304L298.158 535.232H287.594H281.558L276.527 537.986L273.509 542.942L272 549H355L344.436 511Z" stroke="black"/>
</g>
<g filter="url(#filter1_d_298_6653)">
<path d="M404.5 501L360 512.5L372 536.5H355L360 549.5H431L404.5 501Z" fill="#CFCFCF"/>
<path d="M404.5 501L360 512.5L372 536.5H355L360 549.5H431L404.5 501Z" stroke="black"/>
</g>
<g filter="url(#filter2_d_298_6653)">
<path d="M395 481.392L349.417 497L336.468 473.068L332.324 465.264L325.59 445.493L323 436.649V429.885L325.59 424.162L329.216 421.561L332.324 420H336.468H342.165H353.561H363.921L395 481.392Z" fill="#339CC7"/>
<path d="M395 481.392L349.417 497L336.468 473.068L332.324 465.264L325.59 445.493L323 436.649V429.885L325.59 424.162L329.216 421.561L332.324 420H336.468H342.165H353.561H363.921L395 481.392Z" stroke="black"/>
</g>
<g filter="url(#filter3_d_298_6653)">
<path d="M336 489.427L285.5 498L260 422.86L258 417.312V410.252V394.115L263 379.994L272.5 362.344L287 350.241L308 340.155L325.5 334.103H329L336 336.12H345.5H352.5L359.5 334.103L364.5 332.086L372 329.564L377 328.052L381.5 324.017H390L409.5 322H419.5L434.5 324.017L449.5 328.052L463 334.103L472.5 340.155L480 348.728L487 356.797L495 364.361L502 368.395L499.5 372.934L487 382.011L471 391.089L451.5 398.149L427 404.201L408 406.218L402 408.739L398 411.765L395 417.312H339L329 422.86L323 430.928L321.5 439.501L336 489.427Z" fill="#339CC7"/>
<path d="M336 489.427L285.5 498L260 422.86L258 417.312V410.252V394.115L263 379.994L272.5 362.344L287 350.241L308 340.155L325.5 334.103H329L336 336.12H345.5H352.5L359.5 334.103L364.5 332.086L372 329.564L377 328.052L381.5 324.017H390L409.5 322H419.5L434.5 324.017L449.5 328.052L463 334.103L472.5 340.155L480 348.728L487 356.797L495 364.361L502 368.395L499.5 372.934L487 382.011L471 391.089L451.5 398.149L427 404.201L408 406.218L402 408.739L398 411.765L395 417.312H339L329 422.86L323 430.928L321.5 439.501L336 489.427Z" stroke="black"/>
</g>
<path d="M103.491 267.15C122.711 240.286 151.514 228.11 151.514 228.11C152.454 227.719 148.448 190.915 148.366 188.304C147.151 145.31 154.282 100.576 186.6 69.5305C227.001 30.7469 300.305 22.711 346.651 55.3858C346.067 54.9537 361.9 42.4736 363.237 41.6735C371.887 36.4531 381.647 33.3496 391.724 32.6157C432.277 29.6957 469.467 61.5589 484.68 100.103C499.893 138.647 496.401 226.469 468.491 251.797" stroke="black" stroke-width="5.05" stroke-miterlimit="10"/>
<path d="M86.1628 313.755C87.1621 303.174 89.8823 292.828 94.2162 283.124C94.6291 282.201 95.0612 281.298 95.5127 280.414" stroke="black" stroke-width="5.05" stroke-miterlimit="10"/>
<path d="M136.282 425.555C131.61 421.309 127.283 416.988 123.317 412.643" stroke="#CCDDE2" stroke-width="5.05" stroke-miterlimit="10"/>
<g filter="url(#filter4_d_298_6653)">
<path d="M525.987 299.68C526.023 302.608 525.987 305.593 525.846 308.585C525.014 327.092 521.042 346.219 511.117 361.804C509.31 364.679 507.294 367.419 505.086 370C483.968 367.219 480.818 345.721 456.397 333.567C427.143 318.971 379.24 324.199 379.24 324.199L402.839 302.473C401.578 237.042 353.446 241.058 353.446 241.058L351 247.036C352.858 241.622 354.737 236.573 356.637 231.89L356.743 231.644C379.034 176.388 402.129 169.538 420.097 161.558C424.39 160.541 428.785 160.018 433.197 160.001C479.134 159.755 506.095 206.446 517.886 244.032C520.819 253.4 525.33 273.434 525.934 295.963C525.946 297.169 525.987 298.427 525.987 299.68Z" fill="#FC4A1A"/>
</g>
<g filter="url(#filter5_d_298_6653)">
<path d="M551.378 543.329C547.739 548.293 541.738 550.998 535.551 550.998H464.465C461.734 551.037 459.024 550.508 456.511 549.447C453.997 548.385 451.736 546.815 449.871 544.835C449.835 544.835 449.871 544.835 449.871 544.835C449.619 544.581 449.382 544.312 449.165 544.028C446.938 541.293 445.545 537.984 445.15 534.49C444.791 531.282 447.197 528.428 450.452 528.559C451.685 528.606 452.86 529.095 453.757 529.934C454.655 530.774 455.215 531.908 455.334 533.126C455.334 533.381 455.388 533.63 455.424 533.88C455.687 535.327 456.329 536.681 457.285 537.806C458.131 538.797 459.192 539.584 460.389 540.109C461.586 540.634 462.888 540.883 464.196 540.837H535.856C537.139 540.859 538.411 540.605 539.586 540.093C540.76 539.581 541.808 538.823 542.659 537.871C543.619 536.771 544.273 535.442 544.559 534.015C544.844 532.589 544.75 531.113 544.287 529.733L512.28 435.392C512.019 434.668 511.71 433.962 511.353 433.28C509.474 429.346 506.496 426.028 502.773 423.721C499.049 421.415 494.735 420.215 490.345 420.266C476.869 420.426 459.762 420.462 458.153 420.462C422.293 420.332 405.975 420.332 397 420.569C397.616 418.382 398.729 416.365 400.255 414.673C400.255 414.673 400.291 414.637 400.291 414.619C402.48 412.307 405.476 410.909 408.668 410.711C421.964 409.631 435.128 407.662 447.915 404.221C470.479 398.159 492.002 387.761 506.955 371.04C514.234 362.946 519.736 353.44 523.111 343.126C525.73 334.937 527.381 326.473 528.029 317.905C528.261 315.2 528.405 312.475 528.46 309.732V309.607C528.46 308.978 528.496 308.332 528.496 307.703C528.578 303.794 528.397 299.885 527.958 296C531.865 296.03 535.608 297.566 538.393 300.283C538.637 300.921 538.818 301.583 538.932 302.258C539.04 302.897 539.094 303.543 539.093 304.191V380.916C539.1 386.157 538.056 391.346 536.024 396.184C533.99 401.021 531.009 405.411 527.252 409.097C521.029 415.207 519.257 424.478 522.207 432.634L554.016 526.459C554.977 529.274 555.239 532.277 554.78 535.214C554.321 538.15 553.153 540.934 551.378 543.329Z" fill="#338B1F"/>
</g>
<path d="M123.324 541.585V329.809H136.283V541.672L123.324 541.585Z" fill="#2E2E2E"/>
<path d="M328.962 333.072C312.528 337.219 296.538 343.205 282.896 353.156C260.003 369.835 249.538 400.951 258.894 427.908C258.894 427.943 295.686 534.073 295.686 534.073H286.003C283.916 534.073 281.85 534.485 279.923 535.287C277.997 536.089 276.248 537.264 274.779 538.745C271.899 541.607 270.48 546.378 270.48 550.758H357.631L324.512 442.426C323.686 439.756 323.5 436.929 323.969 434.173C324.439 431.418 325.551 428.812 327.215 426.565C328.879 424.319 331.048 422.497 333.546 421.245C336.045 419.993 338.804 419.346 341.6 419.358C360.469 419.89 377.995 420.614 397.08 419.785" stroke="black" stroke-width="5.05" stroke-miterlimit="10"/>
<path d="M525.735 309.053V308.936C524.888 286.16 523.743 263.688 517.512 243.762C505.774 206.269 478.933 159.695 433.2 159.94C428.808 159.957 424.433 160.479 420.159 161.494C390.013 168.66 369.077 199.547 357.087 231.404L356.982 231.65C355.838 234.706 354.778 237.754 353.805 240.795C353.145 242.842 352.331 244.835 351.37 246.758C347.697 254.159 341.875 260.279 334.667 264.317C327.458 268.355 319.199 270.122 310.969 269.388C255.606 264.354 182.641 261.48 159.66 300.381" stroke="black" stroke-width="5.05" stroke-miterlimit="10"/>
<path d="M435.138 266.689C427.079 276.419 418.593 285.815 409.821 294.902C391.863 313.52 376.37 333.295 348.501 334.614C326.269 335.683 305.104 327.151 284.08 321.235C261.591 314.91 250.208 309.853 229.249 303.464C223.212 301.631 216.95 300.648 210.642 300.544L189.542 300.707" stroke="black" stroke-width="5.05" stroke-miterlimit="10"/>
<path d="M352.84 535.44C354.849 534.539 357.028 534.077 359.229 534.085H368.936C368.936 534.085 348.647 494.647 332.424 468.396" stroke="black" stroke-width="5.05" stroke-miterlimit="10"/>
<path d="M366.169 419.873L434.03 551.466H357.269H343.347" stroke="black" stroke-width="5.05" stroke-miterlimit="10"/>
<path d="M551.296 543.914C547.746 548.803 541.888 551.466 535.85 551.466H466.47C460.718 551.466 455.106 549.083 451.52 544.586C449.346 541.893 447.986 538.635 447.601 535.195C447.251 532.036 449.599 529.227 452.776 529.355C453.979 529.401 455.126 529.883 456.002 530.71C456.878 531.537 457.425 532.653 457.541 533.852C457.683 535.548 458.348 537.158 459.445 538.46C460.282 539.42 461.321 540.185 462.486 540.701C463.652 541.216 464.916 541.47 466.19 541.444H536.148C537.4 541.465 538.641 541.216 539.788 540.712C540.933 540.207 541.957 539.461 542.788 538.524C543.724 537.44 544.363 536.132 544.641 534.728C544.919 533.323 544.828 531.87 544.376 530.512L513.138 437.644C511.556 433.246 508.645 429.45 504.809 426.782C500.973 424.114 496.401 422.705 491.728 422.752C478.577 422.91 461.88 422.945 460.309 422.945C421.339 422.822 405.997 422.822 397.868 423.12C397.741 423.119 397.616 423.093 397.5 423.044C397.383 422.995 397.277 422.923 397.188 422.833C397.099 422.743 397.029 422.637 396.981 422.52C396.934 422.402 396.909 422.277 396.91 422.15C396.899 418.545 398.221 415.062 400.624 412.374C400.634 412.367 400.642 412.359 400.648 412.349C400.654 412.339 400.658 412.328 400.66 412.316C402.799 410.044 405.721 408.671 408.836 408.473C421.812 407.41 434.66 405.471 447.14 402.084C469.163 396.116 490.169 385.878 504.763 369.415C511.867 361.446 517.237 352.087 520.531 341.932C523.081 333.872 524.686 325.543 525.314 317.112C525.544 314.441 525.684 311.759 525.735 309.065V308.936C525.735 308.323 525.77 307.686 525.77 307.067C525.849 303.219 525.674 299.37 525.244 295.545C531.598 295.51 538.005 300.13 539.114 306.577C539.22 307.206 539.273 307.842 539.272 308.481V384.009C539.278 389.169 538.26 394.278 536.275 399.041C534.292 403.804 531.382 408.126 527.715 411.755C521.641 417.77 519.912 426.898 522.791 434.928L553.837 527.306C554.779 530.074 555.041 533.029 554.599 535.921C554.157 538.812 553.024 541.554 551.296 543.914Z" stroke="black" stroke-width="5.05" stroke-miterlimit="10"/>
<path d="M217.972 313.76H37.2183C32.7899 313.76 29.2 317.35 29.2 321.778V321.784C29.2 326.212 32.7899 329.802 37.2183 329.802H217.972C222.401 329.802 225.99 326.212 225.99 321.784V321.778C225.99 317.35 222.401 313.76 217.972 313.76Z" stroke="black" stroke-width="5.05" stroke-miterlimit="10"/>
<g filter="url(#filter6_d_298_6653)">
<path d="M166.785 542.588H93.697C91.2168 542.588 89.2061 544.599 89.2061 547.079C89.2061 549.559 91.2168 551.57 93.697 551.57H166.785C169.265 551.57 171.276 549.559 171.276 547.079C171.276 544.599 169.265 542.588 166.785 542.588Z" stroke="black" stroke-width="5.05" stroke-miterlimit="10" shape-rendering="crispEdges"/>
</g>
<path d="M113.214 306.56V307.366C113.33 312.908 118.546 313.755 123.042 313.79L209.977 313.731C213.784 313.731 216.926 310.811 216.932 307.225V307.074C216.862 303.57 213.802 300.714 210.041 300.708C210.041 300.708 161.405 300.533 123.737 300.422C123.06 302.396 121.343 303.926 119.2 305.176C117.356 306.142 115.295 306.619 113.214 306.56Z" fill="#FAFAFA" stroke="black" stroke-width="5.05" stroke-miterlimit="10"/>
<path d="M65.4081 228.478C65.4262 229.401 65.6902 230.302 66.1731 231.089L106.469 298.769C106.991 299.582 107.675 300.279 108.479 300.816C109.283 301.353 110.189 301.717 111.141 301.887C112.751 302.204 114.42 302.023 115.924 301.367C118.394 300.269 119.819 298.056 119.773 295.814C119.764 295.531 119.734 295.25 119.685 294.973C119.561 294.354 119.332 293.761 119.008 293.221L78.7116 225.541C76.9596 222.58 72.6731 221.418 69.2275 222.942C66.7688 224.017 65.3438 226.23 65.4081 228.478Z" fill="#FAFAFA" stroke="black" stroke-width="5.05" stroke-miterlimit="10"/>
<path d="M174.37 300.708C174.37 300.708 179.223 296.089 190.383 288.754" stroke="black" stroke-width="5.05" stroke-miterlimit="10"/>
<path d="M213.942 224.788L196.253 244.405C195.021 245.771 193.311 246.613 191.477 246.755C189.642 246.898 187.823 246.33 186.395 245.17C185.606 244.529 184.962 243.729 184.505 242.821C184.049 241.914 183.789 240.92 183.746 239.905C183.701 238.89 183.873 237.877 184.249 236.933C184.625 235.989 185.197 235.136 185.927 234.43L189.163 231.3C189.285 231.124 189.426 230.967 189.566 230.803L191.902 228.228L211.991 206.398C214.43 203.718 217.5 201.692 220.922 200.505C224.345 199.317 228.011 199.006 231.585 199.6L231.882 199.653" stroke="black" stroke-width="5.05" stroke-miterlimit="10"/>
<path d="M238.855 230.096H221.16C219.146 230.096 217.216 229.296 215.792 227.872C214.368 226.448 213.568 224.518 213.568 222.504C213.568 220.49 214.368 218.56 215.792 217.136C217.216 215.712 219.146 214.912 221.16 214.912H246.272" stroke="black" stroke-width="5.05" stroke-miterlimit="10"/>
<path d="M225.29 230.096C225.045 233.197 223.859 235.492 222.113 237.104C217.616 241.192 209.37 240.742 203.635 237.933" stroke="black" stroke-width="5.05" stroke-miterlimit="10"/>
<path d="M191.932 228.216C186.845 222.09 187.89 213.762 191.844 207.321C208.167 180.667 239.282 197.083 259.74 208.571C271.918 215.441 283.559 223.223 294.564 231.849C304.305 239.441 313.322 248.528 325.025 253.095C332.033 255.834 340.309 256.488 347.281 253.328" stroke="black" stroke-width="5.05" stroke-miterlimit="10"/>
<path d="M222.112 237.057C234.456 246.168 246.242 256.01 257.409 266.531" stroke="black" stroke-width="5.05" stroke-miterlimit="10"/>
<path d="M371.932 91.4951C374.971 94.303 379.638 94.4549 383.501 94.0781C388.438 93.6223 393.328 92.4128 398.163 91.3917L401.1 91.2398H401.142C401.705 91.2459 402.262 91.3632 402.78 91.5868C403.298 91.8099 403.768 92.1344 404.162 92.541C404.556 92.9482 404.868 93.4296 405.078 93.9584C405.289 94.4865 405.394 95.0524 405.389 95.6219C405.456 102.036 404.823 108.439 403.503 114.712L409.131 117.794C409.858 115.739 409.041 112.779 410.765 112.555C411.87 110.47 413.516 109.114 416.099 110.664C421.156 113.703 423.151 122.631 418.279 126.722L421.403 132.629C422.491 134.701 424.256 136.325 426.397 137.225C428.538 138.125 430.921 138.245 433.14 137.565L429.95 130.429C437.435 131.772 442.672 122.321 440.39 116.554C438.834 112.591 438.912 109.51 440.99 105.656C441.129 105.395 439.717 105.048 439.837 104.781C439.909 101.955 439.134 98.9282 437.789 97.4877C435.422 94.9108 430.659 94.4489 431.632 90.5348C432.064 88.8318 432.224 87.0692 432.107 85.314C431.853 83.0196 431.116 80.8067 429.946 78.8247C428.776 76.8422 427.2 75.1361 425.325 73.8209C421.385 71.2014 416.976 73.5778 412.765 73.511C407.653 73.4563 403.989 69.0681 398.631 69.0012C395.965 68.9587 393.826 70.0102 391.544 71.3169C389.633 72.4291 387.753 73.59 385.927 74.8481C384.101 76.1062 382.48 77.1941 380.299 77.2002C377.458 77.2366 374.713 75.4133 371.854 76.2642C370.408 76.658 369.137 77.5363 368.25 78.7561C367.343 83.2414 368.983 88.7905 371.932 91.4951Z" fill="#663C0A"/>
<path d="M408.496 118.406C408.853 116.884 409.378 115.407 410.061 114.002C411.136 111.999 412.742 110.697 415.247 112.186C420.164 115.106 422.103 123.685 417.367 127.615L420.404 133.292C421.463 135.281 423.179 136.842 425.26 137.707C427.342 138.572 429.659 138.687 431.815 138.034" stroke="black" stroke-width="5.05" stroke-linecap="round" stroke-linejoin="round"/>
<path d="M428.716 131.178L431.805 138.046C432.582 139.687 434.807 144.732 437.137 149.977C438.796 153.732 440.524 157.598 441.809 160.442" stroke="black" stroke-width="5.05" stroke-linecap="round" stroke-linejoin="round"/>
<path d="M378.671 106.516C378.671 106.516 387.776 104.25 391.753 111.153" stroke="black" stroke-width="5.05" stroke-miterlimit="10"/>
<path d="M381.352 127.125C378.899 127.797 375.6 128.398 373.708 126.261L377.831 117.583C378.832 115.455 379.079 113.049 378.531 110.762C377.632 106.913 375.384 101.067 377.796 95.9922" stroke="black" stroke-width="5.05" stroke-miterlimit="10"/>
<path d="M387.478 115.494C388.169 114.347 387.636 112.76 386.288 111.947C384.94 111.135 383.287 111.405 382.596 112.552C381.905 113.698 382.437 115.286 383.786 116.098C385.134 116.911 386.787 116.64 387.478 115.494Z" fill="black"/>
<path d="M400.763 170.131L398.603 146.152" stroke="black" stroke-width="5.05" stroke-miterlimit="10"/>
<path d="M408.474 119.037C408.474 118.826 408.474 118.61 408.474 118.4C408.485 118.175 408.485 117.948 408.474 117.723" stroke="black" stroke-width="5.05" stroke-linecap="round" stroke-linejoin="round"/>
<path d="M408.479 119.043L406.598 118.033L403.001 116.076" stroke="black" stroke-width="5.05" stroke-linecap="round" stroke-linejoin="round"/>
<path d="M393.423 127.744C393.423 127.744 393.242 133.818 386.298 136.317" stroke="black" stroke-width="5.05" stroke-miterlimit="10"/>
<path d="M428.713 131.179C435.99 132.469 441.082 123.388 438.863 117.846C437.351 114.038 437.427 111.077 439.447 107.375C439.582 107.124 439.693 106.878 439.809 106.633C441.31 103.322 440.779 100.04 438.419 97.2247C436.183 94.5617 432.813 93.6273 433.782 89.7437C434.218 88.0577 434.38 86.3127 434.261 84.5753C434.01 82.3076 433.275 80.1206 432.106 78.1612C430.937 76.2019 429.362 74.5159 427.487 73.2165C423.551 70.606 419.118 72.9712 414.878 72.907C409.774 72.8311 406.089 68.4861 400.734 68.4219C398.053 68.4219 395.893 69.4205 393.615 70.717C391.699 71.8208 389.801 72.9829 387.991 74.221C386.181 75.4591 384.487 76.557 382.338 76.557C379.488 76.557 376.737 74.805 373.887 75.6226C371.038 76.4402 369.344 78.7996 368.783 81.5327C367.872 85.8192 369.467 91.1745 372.334 93.7967C375.289 96.4947 379.827 96.6407 383.582 96.2787C388.382 95.8407 393.136 94.6785 397.837 93.6974L400.693 93.5514H400.734C401.282 93.5566 401.823 93.6699 402.326 93.8843C402.83 94.0992 403.287 94.4105 403.67 94.8017C404.054 95.1924 404.356 95.6555 404.561 96.163C404.766 96.6711 404.868 97.2142 404.863 97.762C404.928 103.926 404.313 110.077 403.029 116.105" stroke="black" stroke-width="5.05" stroke-miterlimit="10"/>
<path d="M409.577 137.825C409.577 137.825 398.726 152.238 389.085 149.008C379.443 145.779 378.952 127.938 378.952 127.938" stroke="black" stroke-width="5.05" stroke-linecap="round" stroke-linejoin="round"/>
<g filter="url(#filter7_d_298_6653)">
<path d="M123.324 541.585V329.809H136.283V541.672" stroke="black" stroke-width="5.05" stroke-miterlimit="10" shape-rendering="crispEdges"/>
</g>
<path d="M135.248 206.578C146.801 206.578 156.167 197.212 156.167 185.659C156.167 174.106 146.801 164.74 135.248 164.74C123.695 164.74 114.33 174.106 114.33 185.659C114.33 197.212 123.695 206.578 135.248 206.578Z" fill="#FF003D"/>
<path d="M127.066 191.056C126.454 190.638 125.91 190.127 125.454 189.543C124.647 188.543 124.234 187.283 124.293 185.999C124.352 184.715 124.879 183.498 125.775 182.576C126.36 181.975 127.076 181.516 127.867 181.238C128.659 180.959 129.504 180.867 130.336 180.97C130.152 179.812 130.349 178.625 130.899 177.589C131.449 176.553 132.321 175.723 133.384 175.227C134.446 174.731 135.642 174.593 136.789 174.836C137.937 175.079 138.974 175.688 139.745 176.573C141.374 178.418 142.139 181.163 142.425 183.581C142.573 184.843 142.593 186.117 142.484 187.382C142.431 188.019 142.203 191.692 141.608 191.926C137.672 193.433 130.961 193.76 127.066 191.056Z" fill="white"/>
<path d="M282.843 201.644C289.036 201.644 294.056 196.624 294.056 190.432C294.056 184.239 289.036 179.219 282.843 179.219C276.651 179.219 271.631 184.239 271.631 190.432C271.631 196.624 276.651 201.644 282.843 201.644Z" fill="#FF003D"/>
<path d="M282.073 185.233C282.414 185.027 282.787 184.879 283.177 184.795C283.847 184.634 284.552 184.723 285.161 185.046C285.769 185.369 286.239 185.902 286.482 186.547C286.64 186.968 286.699 187.421 286.653 187.869C286.608 188.316 286.459 188.748 286.22 189.128C286.81 189.316 287.326 189.687 287.692 190.187C288.057 190.688 288.255 191.291 288.255 191.911C288.255 192.531 288.057 193.135 287.692 193.635C287.326 194.135 286.81 194.506 286.22 194.694C284.882 194.987 283.488 194.885 282.208 194.402C281.562 194.184 280.94 193.903 280.35 193.561C280.053 193.392 278.318 192.446 278.347 192.101C278.517 189.835 279.889 186.506 282.073 185.233Z" fill="white"/>
<path d="M195.904 177.64C197.161 178.689 198.563 179.549 200.068 180.193C202.839 181.349 205.862 181.766 208.842 181.403C211.822 181.039 214.656 179.908 217.068 178.119C218.937 176.694 220.572 174.726 222.505 173.296C223.854 172.238 225.473 171.583 227.177 171.403C227.744 171.419 228.306 171.301 228.818 171.059C230.115 170.253 228.585 168.916 228.45 167.969C228.27 166.456 228.65 164.93 229.519 163.677C231.737 160.369 232.743 156.396 232.366 152.43C231.988 148.466 230.251 144.753 227.448 141.923C224.646 139.093 220.95 137.319 216.989 136.903C213.028 136.487 209.045 137.454 205.715 139.64C202.427 141.795 199.986 144.989 197.51 148.043C195.326 150.736 193.042 153.387 191.442 156.465C187.681 163.7 189.877 172.612 195.904 177.64Z" fill="#699BF7"/>
<path d="M218.206 153.79C220.274 153.79 221.949 152.114 221.949 150.046C221.949 147.978 220.274 146.303 218.206 146.303C216.138 146.303 214.462 147.978 214.462 150.046C214.462 152.114 216.138 153.79 218.206 153.79Z" fill="white"/>
<path d="M210.963 162.643C213.03 162.643 214.706 160.967 214.706 158.9C214.706 156.832 213.03 155.156 210.963 155.156C208.896 155.156 207.219 156.832 207.219 158.9C207.219 160.967 208.896 162.643 210.963 162.643Z" fill="white"/>
<path d="M204.172 170.954C206.239 170.954 207.915 169.278 207.915 167.21C207.915 165.143 206.239 163.467 204.172 163.467C202.104 163.467 200.428 165.143 200.428 167.21C200.428 169.278 202.104 170.954 204.172 170.954Z" fill="white"/>
<path d="M312.441 132.153C312.148 133.62 311.532 135.002 310.637 136.199C309.741 137.397 308.59 138.379 307.266 139.074L276.046 155.659C274.868 156.288 273.578 156.677 272.25 156.806C270.922 156.935 269.581 156.8 268.305 156.409C267.028 156.019 265.842 155.38 264.813 154.53C263.785 153.68 262.934 152.634 262.31 151.455L237.426 104.6C236.165 102.224 235.899 99.4448 236.686 96.8723C237.474 94.3004 239.25 92.1454 241.625 90.8822L272.869 74.3024C277.57 71.8029 284.058 73.7184 286.581 78.5014L311.471 125.338C312.591 127.424 312.935 129.839 312.441 132.153Z" fill="#338B1F"/>
<path d="M303.172 128.602L272.728 116.998C272.341 116.847 272.019 116.563 271.821 116.198C271.623 115.832 271.562 115.407 271.648 115.001L278.709 82.5245C278.789 82.1787 278.972 81.8657 279.234 81.6269C279.495 81.3874 279.823 81.2332 280.175 81.1848C280.526 81.1357 280.883 81.1947 281.201 81.3535C281.518 81.5124 281.779 81.7641 281.95 82.0748L305.333 126.143C305.498 126.457 305.565 126.814 305.523 127.166C305.482 127.518 305.334 127.85 305.099 128.116C304.865 128.383 304.555 128.572 304.211 128.659C303.867 128.745 303.505 128.725 303.172 128.602Z" fill="white"/>
<path d="M348.648 164.759C349.287 165.216 349.815 165.812 350.193 166.502C350.571 167.191 350.79 167.957 350.832 168.742L352 187.307C352.045 188.008 351.95 188.71 351.723 189.374C351.495 190.039 351.138 190.651 350.674 191.178C350.209 191.704 349.645 192.133 349.013 192.441C348.382 192.749 347.696 192.929 346.995 192.972L319.133 194.689C317.721 194.773 316.333 194.294 315.273 193.357C314.213 192.42 313.568 191.101 313.48 189.69L312.341 171.113C312.291 169.71 312.781 168.341 313.71 167.29C314.639 166.238 315.936 165.583 317.334 165.459L345.191 163.707C346.431 163.638 347.657 164.011 348.648 164.759Z" fill="#338B1F"/>
<path d="M344.945 168.425L332.752 180.496C332.597 180.643 332.395 180.731 332.182 180.746C331.97 180.761 331.758 180.702 331.584 180.578L317.568 170.124C317.418 170.012 317.306 169.856 317.249 169.677C317.19 169.499 317.188 169.307 317.242 169.128C317.297 168.949 317.404 168.79 317.551 168.674C317.698 168.557 317.877 168.489 318.064 168.477L344.274 166.86C344.457 166.855 344.638 166.905 344.792 167.004C344.947 167.103 345.067 167.246 345.14 167.415C345.212 167.583 345.232 167.77 345.198 167.95C345.163 168.13 345.075 168.295 344.945 168.425Z" fill="white"/>
<path d="M159.431 266.777C157.602 267.077 155.753 267.234 153.9 267.244C136.158 267.244 136.754 250.793 136.754 250.793L151.453 253.969C150.898 252.609 150.685 251.132 150.834 249.67C150.983 248.208 151.488 246.804 152.306 245.583C155.67 240.666 163.484 243.195 163.484 243.195L168.343 240.064L167.291 245.904L173.803 244.807L170.457 248.678C174.953 253 180.683 266.158 166.865 272.996C153.048 279.835 147.085 271.641 147.085 271.641L153.9 267.25L159.431 266.777Z" fill="#61B2E4"/>
<path d="M159.139 250.687C160.314 250.687 161.265 249.736 161.265 248.561C161.265 247.387 160.314 246.436 159.139 246.436C157.966 246.436 157.014 247.387 157.014 248.561C157.014 249.736 157.966 250.687 159.139 250.687Z" fill="white"/>
<path d="M196.194 551.465H439.296" stroke="black" stroke-width="3.15" stroke-miterlimit="10"/>
<defs>
<filter id="filter0_d_298_6653" x="267.36" y="510.475" width="92.2981" height="47.0254" filterUnits="userSpaceOnUse" color-interpolation-filters="sRGB">
<feFlood flood-opacity="0" result="BackgroundImageFix"/>
<feColorMatrix in="SourceAlpha" type="matrix" values="0 0 0 0 0 0 0 0 0 0 0 0 0 0 0 0 0 0 127 0" result="hardAlpha"/>
<feOffset dy="4"/>
<feGaussianBlur stdDeviation="2"/>
<feComposite in2="hardAlpha" operator="out"/>
<feColorMatrix type="matrix" values="0 0 0 0 0 0 0 0 0 0 0 0 0 0 0 0 0 0 0.25 0"/>
<feBlend mode="normal" in2="BackgroundImageFix" result="effect1_dropShadow_298_6653"/>
<feBlend mode="normal" in="SourceGraphic" in2="effect1_dropShadow_298_6653" result="shape"/>
</filter>
<filter id="filter1_d_298_6653" x="350.272" y="500.418" width="85.5708" height="57.582" filterUnits="userSpaceOnUse" color-interpolation-filters="sRGB">
<feFlood flood-opacity="0" result="BackgroundImageFix"/>
<feColorMatrix in="SourceAlpha" type="matrix" values="0 0 0 0 0 0 0 0 0 0 0 0 0 0 0 0 0 0 127 0" result="hardAlpha"/>
<feOffset dy="4"/>
<feGaussianBlur stdDeviation="2"/>
<feComposite in2="hardAlpha" operator="out"/>
<feColorMatrix type="matrix" values="0 0 0 0 0 0 0 0 0 0 0 0 0 0 0 0 0 0 0.25 0"/>
<feBlend mode="normal" in2="BackgroundImageFix" result="effect1_dropShadow_298_6653"/>
<feBlend mode="normal" in="SourceGraphic" in2="effect1_dropShadow_298_6653" result="shape"/>
</filter>
<filter id="filter2_d_298_6653" x="318.5" y="419.5" width="81.2056" height="86.1094" filterUnits="userSpaceOnUse" color-interpolation-filters="sRGB">
<feFlood flood-opacity="0" result="BackgroundImageFix"/>
<feColorMatrix in="SourceAlpha" type="matrix" values="0 0 0 0 0 0 0 0 0 0 0 0 0 0 0 0 0 0 127 0" result="hardAlpha"/>
<feOffset dy="4"/>
<feGaussianBlur stdDeviation="2"/>
<feComposite in2="hardAlpha" operator="out"/>
<feColorMatrix type="matrix" values="0 0 0 0 0 0 0 0 0 0 0 0 0 0 0 0 0 0 0.25 0"/>
<feBlend mode="normal" in2="BackgroundImageFix" result="effect1_dropShadow_298_6653"/>
<feBlend mode="normal" in="SourceGraphic" in2="effect1_dropShadow_298_6653" result="shape"/>
</filter>
<filter id="filter3_d_298_6653" x="253.5" y="321.5" width="253.175" height="185.064" filterUnits="userSpaceOnUse" color-interpolation-filters="sRGB">
<feFlood flood-opacity="0" result="BackgroundImageFix"/>
<feColorMatrix in="SourceAlpha" type="matrix" values="0 0 0 0 0 0 0 0 0 0 0 0 0 0 0 0 0 0 127 0" result="hardAlpha"/>
<feOffset dy="4"/>
<feGaussianBlur stdDeviation="2"/>
<feComposite in2="hardAlpha" operator="out"/>
<feColorMatrix type="matrix" values="0 0 0 0 0 0 0 0 0 0 0 0 0 0 0 0 0 0 0.25 0"/>
<feBlend mode="normal" in2="BackgroundImageFix" result="effect1_dropShadow_298_6653"/>
<feBlend mode="normal" in="SourceGraphic" in2="effect1_dropShadow_298_6653" result="shape"/>
</filter>
<filter id="filter4_d_298_6653" x="347" y="160" width="183" height="218" filterUnits="userSpaceOnUse" color-interpolation-filters="sRGB">
<feFlood flood-opacity="0" result="BackgroundImageFix"/>
<feColorMatrix in="SourceAlpha" type="matrix" values="0 0 0 0 0 0 0 0 0 0 0 0 0 0 0 0 0 0 127 0" result="hardAlpha"/>
<feOffset dy="4"/>
<feGaussianBlur stdDeviation="2"/>
<feComposite in2="hardAlpha" operator="out"/>
<feColorMatrix type="matrix" values="0 0 0 0 0 0 0 0 0 0 0 0 0 0 0 0 0 0 0.25 0"/>
<feBlend mode="normal" in2="BackgroundImageFix" result="effect1_dropShadow_298_6653"/>
<feBlend mode="normal" in="SourceGraphic" in2="effect1_dropShadow_298_6653" result="shape"/>
</filter>
<filter id="filter5_d_298_6653" x="393" y="296" width="166" height="263" filterUnits="userSpaceOnUse" color-interpolation-filters="sRGB">
<feFlood flood-opacity="0" result="BackgroundImageFix"/>
<feColorMatrix in="SourceAlpha" type="matrix" values="0 0 0 0 0 0 0 0 0 0 0 0 0 0 0 0 0 0 127 0" result="hardAlpha"/>
<feOffset dy="4"/>
<feGaussianBlur stdDeviation="2"/>
<feComposite in2="hardAlpha" operator="out"/>
<feColorMatrix type="matrix" values="0 0 0 0 0 0 0 0 0 0 0 0 0 0 0 0 0 0 0.25 0"/>
<feBlend mode="normal" in2="BackgroundImageFix" result="effect1_dropShadow_298_6653"/>
<feBlend mode="normal" in="SourceGraphic" in2="effect1_dropShadow_298_6653" result="shape"/>
</filter>
<filter id="filter6_d_298_6653" x="82.6812" y="540.062" width="95.1194" height="22.0312" filterUnits="userSpaceOnUse" color-interpolation-filters="sRGB">
<feFlood flood-opacity="0" result="BackgroundImageFix"/>
<feColorMatrix in="SourceAlpha" type="matrix" values="0 0 0 0 0 0 0 0 0 0 0 0 0 0 0 0 0 0 127 0" result="hardAlpha"/>
<feOffset dy="4"/>
<feGaussianBlur stdDeviation="2"/>
<feComposite in2="hardAlpha" operator="out"/>
<feColorMatrix type="matrix" values="0 0 0 0 0 0 0 0 0 0 0 0 0 0 0 0 0 0 0.25 0"/>
<feBlend mode="normal" in2="BackgroundImageFix" result="effect1_dropShadow_298_6653"/>
<feBlend mode="normal" in="SourceGraphic" in2="effect1_dropShadow_298_6653" result="shape"/>
</filter>
<filter id="filter7_d_298_6653" x="116.8" y="327.283" width="26.0088" height="222.389" filterUnits="userSpaceOnUse" color-interpolation-filters="sRGB">
<feFlood flood-opacity="0" result="BackgroundImageFix"/>
<feColorMatrix in="SourceAlpha" type="matrix" values="0 0 0 0 0 0 0 0 0 0 0 0 0 0 0 0 0 0 127 0" result="hardAlpha"/>
<feOffset dy="4"/>
<feGaussianBlur stdDeviation="2"/>
<feComposite in2="hardAlpha" operator="out"/>
<feColorMatrix type="matrix" values="0 0 0 0 0 0 0 0 0 0 0 0 0 0 0 0 0 0 0.25 0"/>
<feBlend mode="normal" in2="BackgroundImageFix" result="effect1_dropShadow_298_6653"/>
<feBlend mode="normal" in="SourceGraphic" in2="effect1_dropShadow_298_6653" result="shape"/>
</filter>
</defs>
</svg>
