<svg width="546" height="381" viewBox="0 0 546 381" fill="none" xmlns="http://www.w3.org/2000/svg">
<path d="M254.826 250.126L247.293 234.149V231.93L241.089 226.604L240.203 217.728L243.305 209.296L244.634 203.083L250.838 198.201L261.03 199.976L275.211 194.65H290.277L293.379 219.503L300.026 210.184H304.901L310.218 213.734L311.548 219.503L308.889 226.604L301.356 230.155L304.901 237.699L313.32 231.93L320.854 220.835L324.842 210.184L330.16 220.835L327.944 240.806L322.626 252.789L313.32 259.002L298.254 254.564L293.379 247.019L285.403 254.564L269.893 256.783L254.826 250.126Z" fill="#EBD3C5" stroke="black"/>
<path d="M290.277 366.847C293.675 365.072 300.647 361.521 301.356 361.521L300.47 370.398L296.481 377.055L290.277 373.948V366.847Z" fill="#EBD3C5" stroke="black"/>
<path d="M300.027 355.308L305.788 359.746L317.752 351.314H331.49L327.058 363.297L333.705 377.498H467.533L485.702 373.948L497.666 365.072L502.984 344.213L496.337 315.81L459.557 264.328L423.662 229.268L397.074 212.847L378.019 207.521H365.611L354.533 211.516L344.784 220.392L341.239 239.032L350.101 264.328L416.129 315.81L418.345 322.467L366.497 326.905L308.889 338.444L298.254 346.432L300.027 355.308Z" fill="#EBD3C5"/>
<path d="M300.027 361.521L292.493 365.072L288.948 369.954L292.493 376.611L298.254 375.723L305.787 359.746M305.787 359.746L300.027 355.308L298.254 346.432L308.889 338.444L366.497 326.905L418.345 322.467L416.129 315.81L350.101 264.328L341.239 239.032L344.784 220.392L354.533 211.516L365.611 207.521H378.019L397.074 212.847L423.662 229.268L459.557 264.328L496.337 315.81L502.984 344.213L497.666 365.072L485.702 373.948L467.533 377.498H333.705L327.058 363.297L331.49 351.314H317.752L305.787 359.746Z" stroke="black"/>
<path d="M191.015 266.99L192.344 261.22L229.568 259.889L262.803 264.327L275.211 259.889C278.756 265.806 285.935 277.907 286.289 278.972C286.644 280.037 301.208 293.914 308.446 300.719L296.038 313.145L280.085 316.252L251.725 310.039L227.795 305.157L209.626 306.932L201.65 315.808L198.105 306.932L194.117 286.961L191.015 276.309V266.99Z" fill="#EBD3C5" stroke="black"/>
<path d="M236.658 199.975L229.567 188.88L233.999 178.673L236.658 176.01L245.52 174.235L261.03 168.021L273.881 166.246L289.834 168.021H297.811H303.572L307.56 172.459L315.093 182.667L321.74 193.762V206.632V214.621L318.638 224.828L313.764 232.373L307.56 237.255L303.572 231.041L307.56 227.491L311.105 223.053V219.059V212.402L307.56 210.626H299.14L293.379 214.621L291.164 195.093L285.846 193.762L276.983 195.093L268.12 197.756L261.03 199.975H256.599L249.065 196.425L245.52 202.194H241.975L236.658 199.975Z" fill="#663C0A" stroke="black"/>
<path d="M497.413 41.0938H388.908C383.384 41.0938 378.905 45.292 378.905 50.4709V195.924C378.905 201.103 383.384 205.301 388.908 205.301H497.413C502.937 205.301 507.415 201.103 507.415 195.924V50.4709C507.415 45.292 502.937 41.0938 497.413 41.0938Z" stroke="#9F9F9F" stroke-width="4.83" stroke-miterlimit="10"/>
<path d="M492.598 59.5215H394.958C392.201 59.5215 389.966 61.7599 389.966 64.5211V85.3186C389.966 88.0797 392.201 90.3181 394.958 90.3181H492.598C495.355 90.3181 497.59 88.0797 497.59 85.3186V64.5211C497.59 61.7599 495.355 59.5215 492.598 59.5215Z" stroke="#3DAE23" stroke-width="4.83" stroke-miterlimit="10"/>
<path d="M276.54 258.559L291.164 249.239L307.56 258.559H316.423L322.183 255.452L327.058 247.908L330.16 236.813V222.611L327.058 211.072L324.842 207.078L322.183 197.314L327.058 193.32L371.815 187.994L405.936 195.983L430.752 207.078L455.125 222.611L483.043 249.683L506.086 291.4L523.811 342.882L528.686 376.611H483.486L492.792 367.735L501.654 357.083L503.87 342.882L497.666 320.691L458.67 260.778L418.344 224.386L389.983 211.072L371.815 207.078L352.76 211.072L343.011 226.161C342.863 232.966 342.656 246.843 343.011 247.908C343.365 248.973 352.908 263.737 357.634 270.985L418.344 318.029L415.686 323.354L344.783 328.68L318.638 309.153L301.356 294.507L283.63 273.204L276.54 258.559Z" fill="#339CC7" stroke="black"/>
<path d="M443.121 72.4946C444.877 72.4946 446.301 71.0687 446.301 69.3098C446.301 67.551 444.877 66.125 443.121 66.125C441.364 66.125 439.94 67.551 439.94 69.3098C439.94 71.0687 441.364 72.4946 443.121 72.4946Z" fill="#3DAE23"/>
<path d="M434.235 83.7198C434.235 81.3594 435.172 79.0958 436.838 77.4271C438.505 75.7577 440.765 74.8203 443.121 74.8203C445.478 74.8203 447.739 75.7577 449.405 77.4271C451.072 79.0958 452.008 81.3594 452.008 83.7198H434.235Z" fill="#3DAE23"/>
<path d="M443.768 123.326C440.381 123.327 437.069 124.334 434.253 126.22C431.437 128.106 429.242 130.786 427.946 133.921C426.651 137.056 426.312 140.505 426.974 143.833C427.636 147.16 429.268 150.216 431.664 152.615C434.06 155.014 437.112 156.647 440.435 157.309C443.758 157.97 447.202 157.63 450.331 156.331C453.461 155.033 456.136 152.834 458.018 150.013C459.9 147.191 460.905 143.875 460.905 140.482C460.905 138.229 460.461 135.997 459.6 133.915C458.739 131.833 457.477 129.942 455.885 128.349C454.294 126.756 452.405 125.492 450.326 124.63C448.247 123.768 446.018 123.325 443.768 123.326ZM443.768 153.498C443.125 153.466 442.519 153.188 442.074 152.721C441.63 152.254 441.383 151.634 441.383 150.989C441.383 150.344 441.63 149.724 442.074 149.257C442.519 148.79 443.125 148.512 443.768 148.48C444.411 148.512 445.018 148.79 445.462 149.257C445.906 149.724 446.154 150.344 446.154 150.989C446.154 151.634 445.906 152.254 445.462 152.721C445.018 153.188 444.411 153.466 443.768 153.498ZM446.93 134.203C446.402 137.922 445.958 141.828 444.848 145.446C444.584 146.317 442.952 146.317 442.688 145.446C441.906 142.726 441.305 139.958 440.888 137.159C440.546 135.122 439.358 131.823 440.492 129.846C441.494 128.043 444.314 127.863 445.952 128.788C447.962 129.924 447.17 132.352 446.93 134.203Z" fill="#3DAE23"/>
<path d="M256.332 76.2432C250.326 74.4495 243.924 74.4801 237.935 76.3303C231.947 78.1811 226.641 81.7686 222.688 86.6395C218.735 91.5105 216.313 97.4457 215.729 103.695C215.144 109.944 216.424 116.227 219.405 121.748C222.386 127.269 226.935 131.781 232.476 134.713C238.017 137.645 244.303 138.865 250.537 138.22C256.771 137.574 262.674 135.092 267.498 131.086C272.324 127.081 275.855 121.732 277.644 115.717C278.833 111.723 279.225 107.535 278.798 103.39C278.37 99.2442 277.131 95.2241 275.153 91.5586C273.173 87.893 270.492 84.6541 267.263 82.0263C264.034 79.398 260.32 77.433 256.332 76.2432ZM240.414 129.724C239.269 129.346 238.317 128.536 237.759 127.465C237.202 126.396 237.083 125.15 237.427 123.993C237.771 122.837 238.552 121.86 239.604 121.271C240.656 120.681 241.895 120.525 243.06 120.837C243.659 120.997 244.219 121.275 244.708 121.656C245.198 122.037 245.606 122.512 245.908 123.054C246.211 123.595 246.401 124.192 246.47 124.809C246.538 125.426 246.482 126.05 246.305 126.645C246.128 127.239 245.833 127.792 245.439 128.271C245.045 128.75 244.559 129.144 244.009 129.432C243.46 129.719 242.859 129.892 242.241 129.943C241.623 129.993 241.002 129.919 240.414 129.724ZM256.194 97.1909C253.296 103.506 250.44 110.195 246.594 116.017C245.67 117.424 242.772 116.558 242.766 114.876C242.815 109.647 243.216 104.427 243.966 99.252C244.434 95.4723 244.068 88.9945 247.122 86.0861C249.834 83.4842 254.922 84.6018 257.352 87.1016C260.274 90.1542 257.598 94.0421 256.194 97.1909Z" fill="#3DAE23"/>
<path d="M167.832 146.508C165.635 148.748 164.15 151.59 163.565 154.674C162.98 157.759 163.322 160.948 164.547 163.838C165.772 166.728 167.825 169.19 170.446 170.911C173.068 172.633 176.14 173.538 179.275 173.511C182.41 173.484 185.466 172.527 188.058 170.76C190.65 168.994 192.66 166.498 193.836 163.587C195.011 160.676 195.298 157.482 194.66 154.407C194.023 151.333 192.49 148.518 190.254 146.316C187.256 143.364 183.209 141.726 179.004 141.762C174.799 141.798 170.781 143.506 167.832 146.508ZM187.716 166.08C187.503 166.297 187.25 166.471 186.969 166.59C186.69 166.709 186.389 166.772 186.085 166.775C185.781 166.777 185.479 166.72 185.197 166.606C184.914 166.492 184.658 166.323 184.44 166.11C184.224 165.897 184.05 165.642 183.932 165.362C183.813 165.082 183.75 164.78 183.747 164.476C183.744 164.171 183.801 163.869 183.915 163.586C184.029 163.304 184.197 163.047 184.41 162.829C184.841 162.39 185.428 162.14 186.042 162.134C186.657 162.129 187.248 162.368 187.686 162.799C188.125 163.23 188.375 163.818 188.38 164.433C188.386 165.049 188.147 165.641 187.716 166.08ZM177.054 151.484C179.16 154.248 181.446 157.078 183.108 160.155C183.51 160.894 182.454 161.958 181.71 161.585C179.419 160.332 177.214 158.927 175.11 157.379C173.544 156.291 170.604 154.933 170.034 152.896C169.518 151.093 171.234 149.086 172.878 148.611C174.9 148.023 175.986 150.12 177.054 151.484Z" fill="#3DAE23"/>
<path d="M400.731 104.066H484.415" stroke="#3DAE23" stroke-width="4.83" stroke-miterlimit="10"/>
<path d="M400.731 112.316H484.415" stroke="#3DAE23" stroke-width="4.83" stroke-miterlimit="10"/>
<path d="M400.731 165.438H484.415" stroke="#3DAE23" stroke-width="4.83" stroke-miterlimit="10"/>
<path d="M420.166 173.244H464.975" stroke="#3DAE23" stroke-width="4.83" stroke-miterlimit="10"/>
<path d="M507.263 154.609C514.643 163.899 521.663 175.413 528.012 189.6C566.664 276.047 518.351 319.92 518.351 319.92" stroke="#9F9F9F" stroke-width="4.83" stroke-miterlimit="10"/>
<path d="M103.547 223.155C103.547 223.155 46.1919 157.998 117.713 125.736C189.234 93.4727 203.394 88.9899 198.234 55.4291C193.074 21.8682 233.635 -12.3055 297.422 10.2767C361.209 32.8589 362.487 75.4153 357.963 108.315C355.395 127.07 366.021 131.576 378.963 130.633" stroke="#9F9F9F" stroke-width="4.83" stroke-miterlimit="10"/>
<path d="M240.306 377.991H247.146C250.071 377.988 252.876 376.822 254.945 374.75C257.013 372.679 258.177 369.87 258.18 366.94V359.272C258.18 358.573 258.043 357.881 257.775 357.236C257.508 356.59 257.117 356.003 256.623 355.509C256.129 355.015 255.543 354.624 254.898 354.357C254.253 354.09 253.562 353.954 252.864 353.954H211.956C211.957 355.586 211.637 357.203 211.014 358.71C210.391 360.219 209.477 361.589 208.324 362.742C207.172 363.896 205.803 364.811 204.297 365.435C202.791 366.058 201.177 366.377 199.547 366.375H51.7231C51.7243 369.455 52.9472 372.409 55.1216 374.586C57.2966 376.765 60.2457 377.989 63.3213 377.991H263.724C263.986 377.991 264.245 377.94 264.488 377.84C264.73 377.74 264.95 377.593 265.134 377.408C265.32 377.223 265.466 377.002 265.567 376.76C265.666 376.518 265.717 376.258 265.717 375.996V363.551C265.717 361.133 266.675 358.814 268.382 357.105C270.089 355.395 272.404 354.435 274.819 354.435C277.232 354.435 279.548 355.395 281.255 357.105C282.961 358.814 283.921 361.133 283.921 363.551V375.996C283.92 376.257 283.971 376.517 284.07 376.759C284.17 377 284.316 377.22 284.5 377.406C284.685 377.591 284.904 377.738 285.145 377.839C285.387 377.939 285.645 377.991 285.907 377.991H529.199C529.199 377.991 521.771 271.876 453.501 220.264C387.434 170.316 325.579 194.388 321.655 195.999L321.463 196.071" stroke="black" stroke-width="4.83" stroke-miterlimit="10"/>
<path d="M253.25 221.971C253.247 222.638 253.048 223.29 252.676 223.844C252.304 224.397 251.777 224.828 251.161 225.082C250.545 225.336 249.868 225.402 249.215 225.27C248.561 225.139 247.961 224.817 247.491 224.345C247.02 223.873 246.7 223.272 246.57 222.617C246.44 221.963 246.507 221.285 246.761 220.668C247.016 220.052 247.448 219.525 248.001 219.154C248.554 218.782 249.205 218.583 249.872 218.582C250.132 218.583 250.392 218.616 250.646 218.678C250.296 218.789 249.991 219.008 249.775 219.304C249.56 219.601 249.444 219.958 249.446 220.325C249.444 220.555 249.488 220.783 249.574 220.996C249.661 221.209 249.789 221.403 249.95 221.567C250.112 221.73 250.304 221.861 250.516 221.95C250.729 222.038 250.956 222.085 251.186 222.085C251.606 222.077 252.01 221.922 252.328 221.646C252.646 221.371 252.857 220.992 252.926 220.577C253.132 221.013 253.243 221.489 253.25 221.971Z" fill="black"/>
<path d="M276.655 222.914C276.656 223.585 276.459 224.241 276.088 224.8C275.717 225.357 275.189 225.793 274.571 226.05C273.952 226.308 273.272 226.376 272.615 226.245C271.958 226.115 271.355 225.793 270.881 225.319C270.407 224.846 270.084 224.242 269.952 223.584C269.822 222.926 269.888 222.244 270.145 221.625C270.4 221.005 270.834 220.476 271.391 220.103C271.948 219.73 272.602 219.531 273.271 219.531C273.433 219.53 273.594 219.549 273.751 219.585C273.452 219.724 273.199 219.945 273.021 220.223C272.843 220.501 272.749 220.824 272.749 221.154C272.729 221.616 272.892 222.068 273.204 222.409C273.515 222.75 273.95 222.954 274.411 222.975C274.873 222.996 275.324 222.832 275.665 222.52C276.005 222.207 276.209 221.772 276.229 221.31C276.506 221.8 276.653 222.352 276.655 222.914Z" fill="black"/>
<path d="M303.65 165.09C303.26 167.722 303.746 170.029 305.678 171.399C310.089 174.477 313.726 178.537 316.304 183.261C336.597 221.233 306.158 237.944 306.158 237.944L302.042 230.733C313.892 224.676 315.104 212.814 305.678 209.906C296.252 206.997 293.114 220.319 293.114 220.319L290.954 195.352C290.954 195.352 286.586 193.182 274.754 195.117C262.921 197.052 260.743 203.596 255.661 200.694C250.579 197.791 247.699 198.026 247.699 198.026C246.253 203.344 242.383 203.344 242.383 203.344C231.043 201.896 228.379 186.182 228.379 186.182C234.133 185.461 234.577 179.908 233.923 175.365C237.109 177.264 241.615 177.402 247.933 173.334C266.059 161.725 284.648 168.016 291.176 168.984C295.688 169.639 300.866 166.875 303.65 165.09Z" stroke="black" stroke-width="4.83" stroke-linecap="round" stroke-linejoin="round"/>
<path d="M314.115 353.391L318.597 351.588L321.957 360.668L321.429 377.145L316.887 377.968L299.648 377.223C299.648 377.223 300.848 367.175 304.515 362.398C308.181 357.621 314.115 353.391 314.115 353.391Z" fill="#3DAE23"/>
<path d="M235.626 208.895C235.626 208.895 240.216 200.645 249.876 201.504" stroke="black" stroke-width="4.83" stroke-miterlimit="10"/>
<path d="M268.795 201.505C268.795 201.505 279.835 199.023 283.699 205.171" stroke="black" stroke-width="4.83" stroke-miterlimit="10"/>
<path d="M285.902 238.856C285.902 238.856 279.302 235.029 274.472 241.464" stroke="black" stroke-width="4.83" stroke-miterlimit="10"/>
<path d="M244.194 202.826C244.194 202.826 239.496 258.176 274.531 257.154C280.531 256.98 286.495 253.032 292.195 246.681" stroke="black" stroke-width="4.83" stroke-miterlimit="10"/>
<path d="M306.158 251.716L292.195 246.68C292.195 246.68 295.657 257.761 312.806 258.608C329.954 259.455 335.708 220.042 323.108 204.184" stroke="black" stroke-width="4.83" stroke-linejoin="round"/>
<path d="M360.745 362.752C360.745 362.752 347.947 373.154 356.641 377.991" stroke="black" stroke-width="4.83" stroke-miterlimit="10"/>
<path d="M350.848 353.07C350.848 353.07 328.647 365.653 347.71 377.99" stroke="black" stroke-width="4.83" stroke-miterlimit="10"/>
<path d="M343.359 343.398C343.359 343.398 313.893 357.219 336.597 377.993" stroke="black" stroke-width="4.83" stroke-miterlimit="10"/>
<path d="M467.273 377.99C467.273 377.99 503.021 377.99 503.501 343.396C503.981 308.801 434.182 221.934 389.014 209.849C343.845 197.765 341.907 230.881 341.907 232.239C341.907 233.597 339.255 247.863 350.847 263.084C359.799 274.85 399.34 304.222 416.884 316.986C417.529 317.455 418.015 318.11 418.279 318.863C418.543 319.616 418.571 320.432 418.361 321.202C418.151 321.971 417.711 322.659 417.101 323.173C416.491 323.686 415.739 324.001 414.946 324.076L337.353 331.54H337.305C336.573 331.672 309.188 336.732 300.848 345.325C300.848 345.325 296.174 348.792 298.592 354.116C301.01 359.44 308.438 357.685 308.642 357.487" stroke="black" stroke-width="4.83" stroke-miterlimit="10"/>
<path opacity="0.26" d="M273.277 229.201C278.613 229.201 282.937 224.87 282.937 219.526C282.937 214.183 278.613 209.852 273.277 209.852C267.942 209.852 263.617 214.183 263.617 219.526C263.617 224.87 267.942 229.201 273.277 229.201Z" fill="white"/>
<path opacity="0.26" d="M248.762 228.244C254.097 228.244 258.422 223.913 258.422 218.569C258.422 213.226 254.097 208.895 248.762 208.895C243.427 208.895 239.102 213.226 239.102 218.569C239.102 223.913 243.427 228.244 248.762 228.244Z" fill="white"/>
<path d="M332.263 351.864C328.867 350.914 323.317 350.061 317.599 351.9C314.802 352.802 312.222 354.273 310.02 356.22C309.54 356.641 309.078 357.067 308.634 357.494C307.677 358.434 306.774 359.427 305.928 360.469C305.817 360.606 305.659 360.698 305.484 360.727C303.354 361.021 289.332 363.245 289.404 370.342C289.47 376.717 296.442 377.763 298.842 377.931C298.941 377.94 299.041 377.929 299.135 377.897C299.23 377.866 299.316 377.815 299.39 377.748C299.464 377.682 299.523 377.601 299.564 377.51C299.605 377.42 299.627 377.321 299.628 377.222C299.628 374.951 300.144 367.83 305.754 360.667" stroke="black" stroke-width="4.83" stroke-miterlimit="10"/>
<path d="M205.926 301.779C207.57 315.053 197.268 321.056 186.006 321.946" stroke="black" stroke-width="4.83" stroke-miterlimit="10"/>
<path d="M169.637 319.175C165.342 316.852 161.864 313.263 159.673 308.896C157.481 304.528 156.682 299.591 157.384 294.754C159.184 281.984 169.985 272.19 180.557 265.976C202.757 252.93 252.786 262.371 261.192 264.294C267.636 265.772 273.024 260.724 275.208 258.284C275.301 258.181 275.421 258.106 275.555 258.069C275.689 258.032 275.83 258.034 275.963 258.075C276.096 258.117 276.214 258.195 276.303 258.301C276.393 258.408 276.45 258.537 276.468 258.675C281.082 285.716 334.669 322.42 347.065 330.634" stroke="black" stroke-width="4.83" stroke-miterlimit="10"/>
<path d="M219.444 292.596L201.702 303.623C200.644 304.282 199.461 304.712 198.228 304.885C196.994 305.059 195.738 304.971 194.541 304.628C193.343 304.284 192.231 303.693 191.275 302.893C190.32 302.093 189.543 301.101 188.994 299.981C188.004 297.97 187.808 295.66 188.444 293.51C189.08 291.361 190.502 289.53 192.426 288.384L219.426 272.273" stroke="black" stroke-width="4.83" stroke-miterlimit="10"/>
<path d="M273.277 229.201C278.613 229.201 282.937 224.87 282.937 219.526C282.937 214.183 278.613 209.852 273.277 209.852C267.942 209.852 263.617 214.183 263.617 219.526C263.617 224.87 267.942 229.201 273.277 229.201Z" stroke="black" stroke-width="4.83" stroke-miterlimit="10"/>
<path d="M248.762 228.244C254.097 228.244 258.422 223.913 258.422 218.569C258.422 213.226 254.097 208.895 248.762 208.895C243.427 208.895 239.102 213.226 239.102 218.569C239.102 223.913 243.427 228.244 248.762 228.244Z" stroke="black" stroke-width="4.83" stroke-miterlimit="10"/>
<path d="M263.665 218.57H258.421" stroke="black" stroke-width="4.83" stroke-miterlimit="10"/>
<path d="M263.665 232.241H260.209C259.991 232.241 259.777 232.194 259.58 232.101C259.383 232.008 259.209 231.873 259.07 231.706C258.931 231.538 258.832 231.342 258.777 231.131C258.723 230.92 258.716 230.7 258.757 230.486L261.043 218.57" stroke="black" stroke-width="4.83" stroke-miterlimit="10"/>
<path d="M194.323 265.26C194.323 265.26 182.005 267.922 177.661 286.55C175.021 297.859 171.397 312.287 168.961 321.878C168.648 323.108 168.62 324.393 168.879 325.636C169.138 326.878 169.677 328.045 170.455 329.048C171.233 330.05 172.229 330.861 173.368 331.419C174.506 331.977 175.757 332.267 177.025 332.267C178.917 332.267 180.753 331.622 182.23 330.436C183.707 329.251 184.737 327.597 185.149 325.747L190.303 302.588" stroke="black" stroke-width="4.83" stroke-miterlimit="10"/>
<path d="M205.583 308.803C205.583 308.803 218.513 301.063 243.983 308.803C269.454 316.543 298.734 321.795 308.394 301.268" stroke="black" stroke-width="4.83" stroke-miterlimit="10"/>
<path d="M317.607 351.898C317.607 351.898 326.607 362.186 321.135 377.99" stroke="black" stroke-width="4.83" stroke-miterlimit="10"/>
<path d="M20.1996 223.973H162.402C166.982 223.967 171.431 225.504 175.033 228.338C178.634 231.173 181.178 235.138 182.256 239.596L204.894 333.495C205.505 336.028 205.534 338.668 204.979 341.214C204.424 343.761 203.299 346.148 201.689 348.196C200.079 350.244 198.026 351.899 195.685 353.037C193.344 354.176 190.775 354.767 188.172 354.767H46.3359C41.7644 354.771 37.3238 353.238 33.7267 350.412C30.1299 347.587 27.5847 343.633 26.4996 339.185L3.49529 245.305C2.8741 242.769 2.83672 240.124 3.38603 237.571C3.93534 235.019 5.05693 232.624 6.66604 230.569C8.27508 228.514 10.3296 226.853 12.6742 225.71C15.0187 224.567 17.592 223.973 20.1996 223.973Z" fill="#338B1F"/>
<path d="M25.378 228.01H158.796C163.094 228.015 167.266 229.465 170.644 232.127C174.021 234.788 176.41 238.508 177.426 242.69L198.678 330.777C199.253 333.154 199.28 335.63 198.76 338.019C198.239 340.408 197.184 342.648 195.674 344.569C194.165 346.491 192.239 348.043 190.042 349.111C187.846 350.179 185.436 350.734 182.994 350.734H49.9001C45.6154 350.725 41.4574 349.28 38.0865 346.631C34.7157 343.982 32.327 340.28 31.3001 336.114L9.69973 248.02C9.11646 245.64 9.0813 243.159 9.59695 240.763C10.1125 238.368 11.1654 236.121 12.6759 234.193C14.1864 232.265 16.1148 230.707 18.3154 229.635C20.5161 228.564 22.9312 228.008 25.378 228.01Z" fill="#3DAE23"/>
<path d="M20.1996 223.973H162.402C166.982 223.967 171.431 225.504 175.033 228.338C178.634 231.173 181.178 235.138 182.256 239.596L204.894 333.495C205.505 336.028 205.534 338.668 204.979 341.214C204.424 343.761 203.299 346.148 201.689 348.196C200.079 350.244 198.026 351.899 195.685 353.037C193.344 354.176 190.775 354.767 188.172 354.767H46.3359C41.7644 354.771 37.3238 353.238 33.7267 350.412C30.1299 347.587 27.5847 343.633 26.4996 339.185L3.49529 245.305C2.8741 242.769 2.83672 240.124 3.38603 237.571C3.93534 235.019 5.05693 232.624 6.66604 230.569C8.27508 228.514 10.3296 226.853 12.6742 225.71C15.0187 224.567 17.592 223.973 20.1996 223.973Z" stroke="black" stroke-width="4.83" stroke-miterlimit="10"/>
<path d="M86.7994 286.515L78.3213 246.933C78.1455 246.096 77.6877 245.345 77.0247 244.806C76.3617 244.266 75.5337 243.972 74.6792 243.971H32.7267C32.1624 243.973 31.6058 244.102 31.099 244.351C30.5923 244.6 30.1486 244.96 29.8018 245.406C29.4549 245.852 29.2139 246.371 29.0969 246.924C28.9799 247.477 28.9901 248.05 29.1266 248.598L38.9367 288.642C39.0585 289.201 39.3183 289.719 39.6927 290.151C40.0287 290.579 40.4571 290.924 40.9455 291.163C41.4339 291.401 41.9697 291.526 42.5127 291.527H42.5907L83.1934 291.046C83.7418 291.038 84.2812 290.909 84.7738 290.668C85.2664 290.427 85.7002 290.08 86.0434 289.652C86.3932 289.217 86.6422 288.711 86.773 288.169C86.9038 287.626 86.9128 287.061 86.7994 286.515ZM31.9287 247.889C31.8983 247.77 31.8954 247.647 31.9204 247.526C31.9454 247.407 31.9975 247.294 32.0727 247.198C32.1497 247.097 32.2487 247.016 32.3621 246.96C32.4754 246.903 32.6002 246.874 32.7267 246.873H74.6792C74.8682 246.873 75.0518 246.937 75.1982 247.056C75.3452 247.176 75.4461 247.342 75.4833 247.528L81.9394 277.676C60.381 256.83 57.939 280.746 57.939 280.746C45.7708 274.401 42.2547 281.347 41.2347 285.92L31.9287 247.889Z" fill="#D7E8F0"/>
<path d="M44.0429 262.256C46.383 261.529 47.493 258.422 46.533 255.316C45.5729 252.209 42.8909 250.286 40.5329 251.013C38.1748 251.74 37.0828 254.847 38.0488 257.948C39.0148 261.048 41.7089 262.983 44.0429 262.256Z" fill="#D7E8F0"/>
<path d="M54.3158 261.547H68.08C69.7901 261.547 71.5061 261.547 73.2161 261.547H73.4621C73.9439 261.56 74.4227 261.47 74.8661 261.283C75.1734 261.131 75.4338 260.899 75.6222 260.613C75.81 260.327 75.9192 259.995 75.9372 259.653C75.9558 259.31 75.8826 258.97 75.726 258.664C75.5694 258.36 75.3348 258.102 75.0462 257.917C74.7233 257.77 74.4287 257.567 74.1761 257.317C74.0093 257.053 73.8953 256.759 73.8401 256.451C73.5227 255.582 72.9083 254.852 72.1061 254.39C71.5229 253.997 70.8659 253.726 70.1753 253.593C69.4847 253.459 68.7743 253.467 68.086 253.615C67.408 253.787 66.7864 254.135 66.286 254.624C65.86 255.045 65.776 255.61 65.446 256.079C65.23 256.385 65.092 256.289 64.798 256.121C64.504 255.952 64.342 255.826 64.102 255.706C63.6286 255.453 63.1372 255.234 62.632 255.051C61.6029 254.67 60.5055 254.508 59.4099 254.576C57.4839 254.727 55.5638 255.874 54.8918 257.689C54.2864 257.698 53.7038 257.922 53.2484 258.321C52.793 258.721 52.4954 259.271 52.4078 259.87C52.3682 260.102 52.3832 260.34 52.4522 260.564C52.5212 260.789 52.6412 260.994 52.8038 261.162C53.2418 261.477 53.7818 261.614 54.3158 261.547Z" fill="#D7E8F0"/>
<path d="M152.993 260.693L151.889 256.144C151.148 253.086 149.402 250.366 146.932 248.422C144.462 246.477 141.41 245.421 138.269 245.424H123.106C121.377 245.422 119.67 245.82 118.118 246.587C116.567 247.353 115.213 248.468 114.162 249.845C113.111 251.221 112.392 252.821 112.06 254.522C111.727 256.222 111.791 257.976 112.246 259.647L113.5 264.268C114.301 267.242 116.059 269.867 118.5 271.739C120.942 273.611 123.931 274.624 127.007 274.622H142.079C143.781 274.621 145.461 274.232 146.992 273.486C148.522 272.739 149.863 271.654 150.914 270.313C151.966 268.972 152.699 267.409 153.059 265.742C153.419 264.076 153.396 262.35 152.993 260.693ZM136.319 261.817L131.141 265.007C130.941 265.134 130.715 265.214 130.48 265.238C130.245 265.263 130.007 265.233 129.786 265.15C129.564 265.068 129.365 264.934 129.203 264.762C129.042 264.589 128.922 264.381 128.855 264.154L126.904 257.773C126.822 257.49 126.823 257.188 126.904 256.905C126.987 256.622 127.148 256.368 127.368 256.174C127.589 255.978 127.86 255.85 128.151 255.803C128.442 255.756 128.74 255.793 129.011 255.91L136.193 259.089C136.449 259.204 136.67 259.388 136.829 259.621C136.988 259.853 137.081 260.125 137.096 260.407C137.112 260.689 137.049 260.969 136.917 261.218C136.784 261.466 136.585 261.674 136.343 261.817H136.319Z" fill="white"/>
<path d="M149.61 301.556H123.083C121.869 301.554 120.682 301.198 119.665 300.532C118.649 299.866 117.848 298.919 117.359 297.806C117.208 297.463 117.127 297.093 117.119 296.718C117.125 295.994 117.417 295.301 117.931 294.79C118.444 294.279 119.138 293.992 119.861 293.99H148.062C146.736 296.238 147.408 299.344 149.61 301.556Z" fill="#D7E8F0"/>
<path d="M166.793 298.828C166.791 299.551 166.503 300.244 165.993 300.755C165.482 301.267 164.79 301.554 164.069 301.556H149.608C147.406 299.344 146.734 296.238 148.06 293.99H160.792C162.005 293.991 163.191 294.344 164.207 295.006C165.223 295.669 166.025 296.612 166.517 297.722C166.683 298.068 166.776 298.444 166.793 298.828Z" fill="#338B1F"/>
<path d="M160.126 301.555C160.051 301.7 159.965 301.838 159.868 301.969C157.972 304.559 153.868 304.8 150.682 302.468C150.301 302.192 149.943 301.886 149.608 301.555C147.406 299.343 146.734 296.237 148.06 293.989C148.135 293.846 148.221 293.71 148.318 293.581C150.196 290.973 154.318 290.744 157.486 293.058C157.87 293.341 158.233 293.653 158.572 293.989C160.792 296.201 161.435 299.307 160.126 301.555Z" fill="white"/>
<path d="M173.435 315.532C173.428 316.257 173.137 316.95 172.624 317.461C172.11 317.972 171.416 318.259 170.693 318.261H65.5592C66.9032 316.001 66.2312 312.907 64.0232 310.701H167.471C168.684 310.701 169.871 311.055 170.887 311.72C171.902 312.384 172.702 313.331 173.189 314.445C173.344 314.787 173.428 315.157 173.435 315.532Z" fill="#338B1F"/>
<path d="M65.5608 318.231H52.4626C51.25 318.232 50.0632 317.879 49.0474 317.216C48.031 316.554 47.2288 315.61 46.7386 314.5C46.5844 314.152 46.5022 313.775 46.4986 313.394C46.4974 313.036 46.5676 312.681 46.7044 312.35C46.8412 312.019 47.0416 311.719 47.2948 311.466C47.548 311.212 47.8486 311.012 48.1798 310.876C48.5104 310.74 48.865 310.671 49.2226 310.672H64.0248C66.2329 312.877 66.9049 315.972 65.5608 318.231Z" fill="#D7E8F0"/>
<path d="M65.5592 318.231C65.498 318.379 65.417 318.518 65.3192 318.645C63.4411 321.253 59.3191 321.476 56.145 319.162C55.7628 318.879 55.4022 318.567 55.065 318.231C52.875 316.019 52.203 312.931 53.511 310.671C53.5842 310.525 53.6706 310.386 53.769 310.257C55.665 307.667 59.7691 307.426 62.9551 309.752C63.3355 310.029 63.6925 310.337 64.0231 310.671C66.2312 312.877 66.9032 315.971 65.5592 318.231Z" fill="white"/>
<path d="M74.8358 334.762H58.1915C56.9795 334.761 55.7933 334.408 54.7774 333.746C53.7616 333.083 52.9594 332.141 52.4674 331.031C52.3024 330.695 52.2082 330.329 52.1914 329.955C52.1932 329.229 52.4818 328.533 52.9948 328.019C53.5072 327.506 54.202 327.217 54.9274 327.215H73.2697C71.9917 329.486 72.6457 332.575 74.8358 334.762Z" fill="#338B1F"/>
<path d="M179.141 332.077C179.131 332.798 178.837 333.485 178.321 333.989C177.806 334.492 177.112 334.77 176.393 334.763H74.8353C72.6452 332.551 71.9732 329.463 73.2812 327.203H173.177C174.39 327.203 175.577 327.556 176.593 328.222C177.608 328.886 178.408 329.833 178.895 330.947C179.053 331.303 179.137 331.687 179.141 332.077Z" fill="#D7E8F0"/>
<path d="M85.3474 334.763C85.2742 334.909 85.1878 335.048 85.0894 335.178C83.2114 337.786 79.0893 338.008 75.9213 335.694C75.5367 335.411 75.1737 335.1 74.8353 334.763C72.6452 332.552 71.9732 329.463 73.2812 327.203C73.3562 327.059 73.4426 326.92 73.5392 326.789C75.4353 324.199 79.5393 323.971 82.7254 326.284C83.1064 326.56 83.464 326.867 83.7934 327.203C86.0014 329.433 86.6734 332.54 85.3474 334.763Z" fill="white"/>
<g opacity="0.21">
<path opacity="0.21" d="M88.2508 287.962L79.7907 248.38C79.6155 247.543 79.1577 246.792 78.4947 246.254C77.8311 245.715 77.0025 245.422 76.1486 245.424H34.19C33.6218 245.424 33.0614 245.554 32.5517 245.805C32.042 246.056 31.5966 246.421 31.2501 246.872C30.9064 247.314 30.6682 247.828 30.5538 248.375C30.4394 248.924 30.4518 249.491 30.5901 250.033L40.4001 290.083C40.5201 290.641 40.7781 291.16 41.1501 291.592C41.4873 292.019 41.9169 292.365 42.4065 292.602C42.8955 292.839 43.4325 292.962 43.9762 292.962H44.0722L84.6688 292.475C85.216 292.468 85.7548 292.34 86.2462 292.101C86.7382 291.86 87.1708 291.514 87.5128 291.087C87.8578 290.653 88.1026 290.147 88.2304 289.607C88.3576 289.067 88.3648 288.505 88.2508 287.962ZM33.374 249.342C33.3434 249.223 33.341 249.098 33.3674 248.978C33.3932 248.859 33.4472 248.746 33.524 248.651C33.599 248.55 33.6968 248.467 33.8096 248.412C33.9218 248.355 34.046 248.326 34.172 248.326H76.1247C76.3137 248.325 76.4973 248.389 76.6449 248.507C76.7925 248.625 76.8951 248.79 76.9347 248.975L83.3908 279.123C61.8264 258.271 59.3904 282.194 59.3904 282.194C47.2282 275.848 43.7062 282.794 42.6921 287.367L33.374 249.342Z" fill="#D7E8F0"/>
<path opacity="0.21" d="M45.4937 263.705C47.8278 262.977 48.9438 259.871 47.9778 256.77C47.0117 253.669 44.3417 251.734 41.9777 252.462C39.6136 253.189 38.5276 256.295 39.4876 259.402C40.4476 262.509 43.1897 264.456 45.4937 263.705Z" fill="#D7E8F0"/>
<path opacity="0.21" d="M55.7899 263H69.5481C71.2642 263 72.9742 263 74.6902 263H74.9302C75.4114 263.014 75.8902 262.924 76.3343 262.736C76.6427 262.585 76.9049 262.354 77.0939 262.068C77.2835 261.781 77.3927 261.449 77.4113 261.106C77.4299 260.763 77.3561 260.422 77.1983 260.116C77.0405 259.811 76.8047 259.554 76.5143 259.371C76.1939 259.218 75.9005 259.015 75.6442 258.77C75.4822 258.501 75.3688 258.207 75.3082 257.898C74.9902 257.032 74.3788 256.305 73.5802 255.843C72.9958 255.449 72.3382 255.177 71.6464 255.043C70.9546 254.91 70.243 254.918 69.5541 255.068C68.8869 255.241 68.2779 255.59 67.7901 256.078C67.3581 256.498 67.2801 257.057 66.9501 257.532C66.7341 257.838 66.5961 257.742 66.3021 257.568C66.0081 257.394 65.8461 257.279 65.6061 257.153C65.1327 256.901 64.6413 256.684 64.1361 256.504C63.107 256.121 62.0096 255.957 60.914 256.023C58.988 256.174 57.0679 257.327 56.3899 259.136C55.7845 259.146 55.2025 259.372 54.7483 259.773C54.2941 260.173 53.9977 260.723 53.9119 261.323C53.8729 261.555 53.8885 261.792 53.9557 262.015C54.0235 262.239 54.1417 262.445 54.3019 262.615C54.7351 262.92 55.2637 263.057 55.7899 263Z" fill="#D7E8F0"/>
<path opacity="0.21" d="M154.469 262.14L153.365 257.597C152.624 254.538 150.877 251.818 148.406 249.872C145.935 247.927 142.882 246.87 139.739 246.871H124.553C122.825 246.87 121.12 247.268 119.57 248.034C118.021 248.799 116.668 249.912 115.617 251.287C114.567 252.66 113.847 254.259 113.513 255.956C113.179 257.654 113.241 259.407 113.693 261.077L114.947 265.704C115.749 268.678 117.507 271.304 119.95 273.175C122.392 275.047 125.383 276.06 128.459 276.057H143.531C145.234 276.058 146.915 275.672 148.446 274.927C149.978 274.183 151.322 273.099 152.375 271.759C153.428 270.419 154.163 268.857 154.526 267.191C154.889 265.525 154.87 263.798 154.469 262.14ZM137.789 263.252L132.593 266.461C132.394 266.588 132.168 266.667 131.934 266.692C131.698 266.716 131.461 266.686 131.241 266.603C131.019 266.521 130.821 266.388 130.66 266.215C130.498 266.042 130.38 265.834 130.313 265.607L128.393 259.22C128.312 258.937 128.314 258.638 128.397 258.355C128.479 258.073 128.64 257.82 128.86 257.626C129.081 257.432 129.352 257.304 129.642 257.257C129.931 257.211 130.229 257.248 130.499 257.363L137.627 260.536C137.88 260.653 138.096 260.837 138.253 261.068C138.41 261.298 138.502 261.567 138.519 261.846C138.535 262.124 138.476 262.402 138.348 262.65C138.219 262.897 138.026 263.105 137.789 263.252Z" fill="#D7E8F0"/>
<path opacity="0.21" d="M151.059 303.003H124.533C123.32 303.001 122.133 302.646 121.117 301.981C120.101 301.317 119.299 300.371 118.809 299.259C118.622 298.844 118.543 298.389 118.579 297.935C118.614 297.481 118.764 297.044 119.013 296.663C119.263 296.283 119.604 295.971 120.006 295.758C120.407 295.545 120.856 295.436 121.311 295.444H149.511C148.191 297.685 148.851 300.798 151.059 303.003Z" fill="#D7E8F0"/>
<path opacity="0.21" d="M168.208 300.275C168.208 300.998 167.922 301.69 167.412 302.202C166.903 302.713 166.212 303.002 165.49 303.003H151.06C148.852 300.797 148.18 297.685 149.506 295.443H162.245C163.457 295.443 164.644 295.795 165.66 296.458C166.676 297.12 167.478 298.065 167.968 299.175C168.122 299.522 168.204 299.896 168.208 300.275Z" fill="#338B1F"/>
<path opacity="0.21" d="M161.572 303.002C161.502 303.15 161.415 303.289 161.314 303.417C159.418 306.007 155.314 306.247 152.128 303.922C151.749 303.643 151.392 303.336 151.06 303.002C148.852 300.797 148.18 297.684 149.506 295.443C149.581 295.297 149.67 295.158 149.77 295.028C151.648 292.42 155.77 292.198 158.938 294.512C159.322 294.795 159.685 295.106 160.024 295.443C162.214 297.654 162.886 300.743 161.572 303.002Z" fill="white"/>
<path opacity="0.21" d="M174.88 316.956C174.873 317.681 174.581 318.373 174.068 318.883C173.554 319.393 172.861 319.679 172.138 319.679H67.0099C68.3539 317.419 67.6819 314.33 65.4739 312.119H168.916C170.13 312.119 171.319 312.474 172.336 313.139C173.352 313.806 174.153 314.754 174.64 315.869C174.794 316.211 174.875 316.581 174.88 316.956Z" fill="#338B1F"/>
<path opacity="0.21" d="M67.0104 319.679H53.9062C52.6948 319.678 51.5092 319.326 50.4934 318.664C49.4776 318.003 48.6748 317.062 48.1821 315.953C48.0309 315.604 47.9499 315.228 47.9421 314.847C47.9421 314.124 48.2289 313.43 48.7402 312.918C49.2508 312.407 49.9438 312.119 50.6662 312.119H65.4744C67.6824 314.33 68.3545 317.419 67.0104 319.679Z" fill="#D7E8F0"/>
<path opacity="0.21" d="M67.0098 319.677C66.948 319.826 66.8651 319.966 66.7637 320.092C64.8857 322.7 60.7637 322.928 57.5956 320.615C57.211 320.329 56.848 320.016 56.5096 319.677C54.3196 317.472 53.6476 314.377 54.9616 312.118C55.0318 311.97 55.1188 311.831 55.2196 311.703C57.1156 309.113 61.2197 308.872 64.4057 311.204C64.7831 311.483 65.1401 311.788 65.4737 312.118C67.6818 314.329 68.3538 317.418 67.0098 319.677Z" fill="white"/>
<path opacity="0.21" d="M76.2818 336.233H59.6135C58.4021 336.231 57.2177 335.878 56.2019 335.217C55.186 334.556 54.3832 333.615 53.8894 332.508C53.7388 332.165 53.6572 331.795 53.6494 331.42C53.6524 330.693 53.9422 329.996 54.4558 329.481C54.9694 328.968 55.6648 328.677 56.3915 328.674H74.7338C73.4197 330.933 74.0917 334.028 76.2818 336.233Z" fill="#338B1F"/>
<path opacity="0.21" d="M180.593 333.523C180.593 333.881 180.521 334.234 180.384 334.563C180.246 334.893 180.045 335.193 179.792 335.444C179.54 335.696 179.239 335.895 178.909 336.031C178.579 336.166 178.226 336.235 177.869 336.233H76.2816C74.0915 334.028 73.4195 330.933 74.7335 328.674H174.623C175.838 328.674 177.026 329.028 178.043 329.694C179.06 330.361 179.861 331.309 180.347 332.423C180.503 332.77 180.587 333.144 180.593 333.523Z" fill="#D7E8F0"/>
<path opacity="0.21" d="M86.7997 336.234C86.7247 336.38 86.6365 336.519 86.5357 336.649C84.6577 339.257 80.5356 339.485 77.3676 337.172C76.983 336.886 76.62 336.573 76.2816 336.234C74.0915 334.029 73.4195 330.934 74.7335 328.675C74.8043 328.528 74.8907 328.389 74.9915 328.26C76.8876 325.67 80.9916 325.448 84.1777 327.761C84.5551 328.04 84.9121 328.345 85.2457 328.675C87.4537 330.886 88.1257 333.993 86.7997 336.234Z" fill="white"/>
</g>
</svg>
