<svg width="974" height="975" viewBox="0 0 974 975" fill="none" xmlns="http://www.w3.org/2000/svg">
<path d="M764.384 55.8281H408.524C367.48 55.8281 334.208 89.1347 334.208 130.221V465.952C334.208 507.038 367.48 540.345 408.524 540.345H764.384C805.428 540.345 838.701 507.038 838.701 465.952V130.221C838.701 89.1347 805.428 55.8281 764.384 55.8281Z" fill="#338B1F"/>
<g filter="url(#filter0_d_242_6645)">
<path d="M760.807 56H412.193C369.008 56 334 90.9711 334 134.11V461.89C334 505.029 369.008 540 412.193 540H760.807C803.992 540 839 505.029 839 461.89V134.11C839 90.9711 803.992 56 760.807 56Z" stroke="black" stroke-width="4.65" stroke-miterlimit="10" shape-rendering="crispEdges"/>
</g>
<path d="M754.461 65.3535H418.45C377.407 65.3535 344.134 98.6602 344.134 139.746V456.416C344.134 497.502 377.407 530.808 418.45 530.808H754.461C795.505 530.808 828.777 497.502 828.777 456.416V139.746C828.777 98.6602 795.505 65.3535 754.461 65.3535Z" fill="#3DAE23"/>
<path d="M771.514 89.7871H670.033C656.241 89.7871 645.051 101.838 645.051 116.668V351.799C645.051 366.658 656.241 378.738 670.033 378.738H771.514C785.335 378.738 796.567 366.658 796.567 351.799V116.668C796.567 101.838 785.335 89.7871 771.514 89.7871ZM789.378 352.823C789.36 357.765 787.389 362.501 783.898 365.995C780.405 369.489 775.673 371.459 770.736 371.475H670.881C665.936 371.459 661.198 369.488 657.698 365.99C654.2 362.493 652.223 357.753 652.199 352.803V115.703C652.223 110.753 654.2 106.012 657.698 102.515C661.198 99.0176 665.936 97.0468 670.881 97.0314H770.736C775.677 97.0469 780.411 99.0196 783.905 102.518C787.397 106.016 789.365 110.757 789.378 115.703V352.823Z" fill="#FAFAFA"/>
<path d="M770.179 406.332H668.698C654.916 406.332 643.715 418.383 643.715 433.213V468.976C643.715 483.845 654.916 495.925 668.698 495.925H770.179C784 495.925 795.23 483.845 795.23 468.976V433.213C795.23 418.383 784 406.332 770.179 406.332ZM788.042 470.009C788.029 474.955 786.061 479.694 782.568 483.19C779.074 486.688 774.341 488.658 769.4 488.671H669.545C664.602 488.658 659.864 486.689 656.364 483.193C652.865 479.697 650.887 474.958 650.864 470.009V432.248C650.887 427.297 652.864 422.558 656.363 419.061C659.863 415.562 664.601 413.592 669.545 413.576H769.4C774.342 413.592 779.075 415.564 782.568 419.063C786.062 422.561 788.029 427.301 788.042 432.248V470.009Z" fill="#FAFAFA"/>
<path d="M542.761 432.325L394.05 430.141C392.451 430.116 390.927 429.455 389.812 428.305C388.698 427.156 388.085 425.611 388.109 424.009C388.107 423.454 388.186 422.902 388.343 422.371C388.726 421.11 389.508 420.009 390.571 419.232C391.634 418.455 392.919 418.044 394.235 418.061L542.946 420.226C541.834 421.954 541.212 423.952 541.144 426.007C541.064 428.225 541.625 430.419 542.761 432.325Z" fill="#338B1F"/>
<path d="M578.819 428.425C578.441 429.683 577.669 430.785 576.616 431.568C575.564 432.352 574.286 432.774 572.975 432.773L562.261 432.617C563.409 430.82 564.036 428.738 564.068 426.604C564.101 424.47 563.539 422.369 562.446 420.537L573.16 420.693C574.757 420.726 576.277 421.389 577.389 422.538C578.501 423.685 579.117 425.227 579.101 426.826C579.083 427.37 578.988 427.908 578.819 428.425Z" fill="white"/>
<path d="M578.468 452.4C578.091 453.656 577.318 454.756 576.265 455.534C575.211 456.313 573.934 456.729 572.624 456.719L424.82 454.555C426.2 452.907 427.085 450.902 427.374 448.77C427.661 446.639 427.34 444.47 426.446 442.514L572.761 444.6C574.359 444.631 575.88 445.293 576.994 446.442C578.106 447.591 578.721 449.133 578.702 450.733C578.708 451.297 578.629 451.859 578.468 452.4Z" fill="#FAFAFA"/>
<path d="M407.035 454.282L393.71 454.087C392.114 454.064 390.592 453.409 389.475 452.265C388.36 451.121 387.743 449.581 387.759 447.983C387.765 447.42 387.847 446.858 388.003 446.316C388.376 445.061 389.149 443.962 390.204 443.188C391.259 442.414 392.539 442.006 393.847 442.026L405.72 442.211C405.025 443.653 404.634 445.223 404.57 446.823C404.471 449.525 405.346 452.172 407.035 454.282Z" fill="#338B1F"/>
<path d="M532.242 480.362L394.256 478.354C392.659 478.319 391.141 477.655 390.029 476.507C388.917 475.359 388.301 473.82 388.314 472.221C388.317 471.679 388.403 471.14 388.568 470.622C388.942 469.363 389.714 468.259 390.767 467.475C391.821 466.692 393.099 466.27 394.412 466.273L532.194 468.301C531.069 470.112 530.473 472.2 530.473 474.332C530.473 476.464 531.069 478.553 532.194 480.362H532.242Z" fill="#338B1F"/>
<path d="M579.043 476.649C578.669 477.906 577.896 479.005 576.842 479.782C575.787 480.561 574.509 480.973 573.199 480.958L551.518 480.676L532.242 480.412C531.118 478.603 530.522 476.514 530.522 474.382C530.522 472.251 531.118 470.162 532.242 468.352L551.878 468.644L573.306 468.956C574.902 468.982 576.421 469.639 577.534 470.782C578.648 471.925 579.263 473.463 579.248 475.06C579.255 475.597 579.186 476.132 579.043 476.649Z" fill="#FAFAFA"/>
<path d="M562.203 432.617C560.705 434.96 558.409 436.68 555.741 437.456C553.072 438.232 550.213 438.013 547.695 436.839C545.176 435.665 543.169 433.616 542.045 431.072C540.921 428.527 540.758 425.661 541.585 423.007C542.413 420.351 544.175 418.087 546.544 416.633C548.913 415.18 551.729 414.637 554.468 415.105C557.207 415.573 559.684 417.02 561.438 419.177C563.191 421.334 564.104 424.056 564.004 426.835C563.933 428.89 563.311 430.887 562.203 432.617Z" fill="#FAFAFA"/>
<g opacity="0.72">
<path opacity="0.72" d="M557.887 425.596C557.63 426.968 556.984 428.238 556.026 429.253C555.562 429.769 555.053 430.245 554.507 430.676C554.205 430.891 552.637 432.148 552.335 431.992C550.27 430.949 547.669 428.326 547.348 425.762C547.294 425.36 547.294 424.954 547.348 424.553C547.462 423.863 547.82 423.236 548.356 422.787C548.892 422.338 549.572 422.096 550.27 422.106C550.728 422.122 551.176 422.247 551.576 422.468C551.977 422.691 552.321 423.004 552.578 423.383C552.872 423.03 553.24 422.748 553.656 422.557C554.073 422.366 554.526 422.272 554.984 422.281C555.397 422.295 555.802 422.393 556.175 422.571C556.548 422.747 556.881 422.999 557.152 423.31C557.425 423.62 557.631 423.984 557.756 424.377C557.883 424.77 557.928 425.185 557.887 425.596Z" fill="#3DAE23"/>
</g>
<path d="M424.801 454.554C423.711 455.862 422.341 456.912 420.792 457.622C419.245 458.333 417.557 458.688 415.854 458.662C414.151 458.636 412.475 458.229 410.949 457.471C409.424 456.713 408.087 455.623 407.036 454.281C405.355 452.168 404.487 449.521 404.591 446.822C404.655 445.222 405.047 443.652 405.74 442.21C406.718 440.221 408.25 438.558 410.151 437.421C412.053 436.284 414.241 435.723 416.454 435.805C418.586 435.872 420.655 436.54 422.425 437.731C424.195 438.924 425.592 440.59 426.457 442.542C427.351 444.498 427.673 446.666 427.384 448.798C427.096 450.929 426.211 452.934 424.831 454.583L424.801 454.554Z" fill="#FAFAFA"/>
<g opacity="0.72">
<path opacity="0.72" d="M421.343 446.393C421.079 447.762 420.43 449.027 419.472 450.04C419.015 450.563 418.505 451.04 417.953 451.463C417.661 451.678 416.083 452.945 415.791 452.78C413.726 451.746 411.125 449.123 410.794 446.549C410.741 446.148 410.741 445.741 410.794 445.34C410.894 444.769 411.162 444.24 411.563 443.822C411.964 443.404 412.479 443.114 413.045 442.99C413.611 442.866 414.201 442.913 414.74 443.124C415.279 443.336 415.743 443.703 416.073 444.18C416.46 443.643 417.017 443.252 417.654 443.072C418.29 442.893 418.969 442.936 419.579 443.192C420.188 443.45 420.693 443.906 421.01 444.488C421.327 445.069 421.437 445.741 421.323 446.393H421.343Z" fill="#3DAE23"/>
</g>
<path d="M551.519 480.674C550.144 482.753 548.128 484.326 545.779 485.156C543.43 485.986 540.874 486.027 538.5 485.271C536.126 484.517 534.062 483.006 532.622 480.972C531.182 478.937 530.444 476.487 530.519 473.995C530.592 471.998 531.179 470.052 532.224 468.35C533.026 467.067 534.074 465.956 535.307 465.08C536.539 464.205 537.934 463.583 539.407 463.25C540.882 462.916 542.408 462.879 543.896 463.14C545.386 463.4 546.809 463.954 548.083 464.767C549.357 465.581 550.457 466.64 551.321 467.882C552.184 469.124 552.793 470.524 553.112 472.003C553.432 473.483 553.456 475.01 553.182 476.498C552.909 477.986 552.344 479.406 551.519 480.674Z" fill="#FAFAFA"/>
<g opacity="0.72">
<path opacity="0.72" d="M547.282 473.518C547.02 474.891 546.371 476.16 545.412 477.175C544.953 477.698 544.445 478.175 543.892 478.598C543.6 478.813 542.022 480.07 541.73 479.914C539.665 478.871 537.065 476.258 536.734 473.684C536.68 473.282 536.68 472.876 536.734 472.475C536.834 471.904 537.101 471.375 537.502 470.957C537.902 470.539 538.419 470.249 538.984 470.124C539.55 470 540.141 470.047 540.679 470.259C541.219 470.47 541.682 470.838 542.013 471.315C542.398 470.779 542.954 470.39 543.59 470.211C544.225 470.032 544.903 470.074 545.512 470.329C546.121 470.585 546.624 471.039 546.943 471.618C547.26 472.197 547.373 472.867 547.262 473.518H547.282Z" fill="#3DAE23"/>
</g>
<path d="M386.97 118.326L387.223 153.611C387.288 159.765 389.728 165.657 394.032 170.052C398.336 174.448 404.171 177.008 410.317 177.196L445.206 177.801C448.206 177.847 451.184 177.289 453.965 176.161C456.746 175.032 459.272 173.356 461.393 171.231C463.514 169.108 465.187 166.578 466.313 163.794C467.44 161.01 467.995 158.028 467.949 155.025L467.686 119.739C467.625 113.585 465.188 107.694 460.885 103.299C456.582 98.9047 450.747 96.3474 444.602 96.1638L409.713 95.5495C406.712 95.5034 403.734 96.0611 400.953 97.1896C398.172 98.3177 395.647 99.9938 393.525 102.118C391.404 104.243 389.73 106.772 388.604 109.556C387.479 112.34 386.922 115.323 386.97 118.326Z" fill="#FAFAFA"/>
<path d="M392.336 127.18L392.521 152.725C392.578 158.069 394.698 163.184 398.435 166.999C402.172 170.815 407.239 173.037 412.576 173.2L442.877 173.726C445.482 173.766 448.069 173.282 450.485 172.302C452.9 171.323 455.095 169.868 456.938 168.024C458.782 166.181 460.237 163.985 461.218 161.568C462.199 159.151 462.685 156.562 462.649 153.953V152.228C458.393 143.511 450.104 130.466 441.221 138.266C428.471 149.478 422.637 140.947 415.205 129.939C409.001 120.725 399.563 113.998 392.336 127.18Z" fill="#338B1F"/>
<path d="M449.343 123.652C453.192 121.093 454.184 115.81 451.558 111.855C448.933 107.899 443.684 106.767 439.836 109.326C435.987 111.887 434.995 117.168 437.621 121.124C440.246 125.08 445.495 126.212 449.343 123.652Z" fill="#338B1F"/>
<path d="M589.64 132.601C584.188 132.599 578.868 134.286 574.413 137.433C569.957 140.578 566.583 145.028 564.754 150.17C562.926 155.312 562.733 160.895 564.201 166.151C565.67 171.408 568.728 176.081 572.956 179.527L503.802 320.62C503.376 320.552 502.946 320.51 502.516 320.493C501.413 320.507 500.318 320.678 499.263 321L454.274 265.045C456.282 262.27 457.42 258.959 457.541 255.534C457.662 252.109 456.761 248.727 454.954 245.817C453.147 242.906 450.514 240.601 447.391 239.195C444.27 237.788 440.8 237.346 437.426 237.921C434.051 238.497 430.925 240.067 428.445 242.428C425.964 244.791 424.244 247.839 423.502 251.184C422.759 254.529 423.03 258.021 424.277 261.211C425.525 264.402 427.694 267.149 430.508 269.101L398.98 358.918C396.231 359.082 393.624 360.195 391.601 362.065C389.579 363.936 388.265 366.45 387.885 369.18C387.504 371.91 388.079 374.689 389.512 377.043C390.946 379.396 393.149 381.181 395.748 382.092C398.348 383.004 401.181 382.987 403.769 382.045C406.357 381.102 408.539 379.291 409.944 376.921C411.349 374.55 411.892 371.765 411.479 369.04C411.065 366.314 409.722 363.816 407.678 361.969L439.206 272.143C439.595 272.143 439.975 272.201 440.365 272.201C442.709 272.201 445.029 271.723 447.183 270.797L492.162 326.733C491.215 328.454 490.712 330.384 490.701 332.349C490.655 333.942 490.93 335.527 491.508 337.012C492.084 338.497 492.954 339.85 494.064 340.993C495.172 342.136 496.499 343.044 497.965 343.665C499.431 344.285 501.007 344.605 502.599 344.605C504.19 344.605 505.766 344.285 507.232 343.665C508.698 343.044 510.025 342.136 511.135 340.993C512.244 339.85 513.113 338.497 513.691 337.012C514.267 335.527 514.542 333.942 514.496 332.349C514.488 329.7 513.589 327.131 511.944 325.056L581.098 183.964C584.733 185.245 588.604 185.714 592.439 185.338C596.275 184.963 599.982 183.751 603.3 181.789C606.618 179.827 609.466 177.161 611.646 173.98C613.825 170.798 615.282 167.178 615.915 163.373C616.548 159.567 616.341 155.669 615.309 151.952C614.277 148.236 612.444 144.79 609.94 141.858C607.437 138.925 604.322 136.578 600.815 134.978C597.307 133.379 593.494 132.567 589.64 132.601Z" fill="#FAFAFA"/>
<path d="M673.209 183.445H765.739H673.209Z" fill="#FAFAFA"/>
<path d="M673.209 183.445H765.739" stroke="white" stroke-width="4.65" stroke-miterlimit="10"/>
<path d="M673.209 197.75H765.739H673.209Z" fill="#FAFAFA"/>
<path d="M673.209 197.75H765.739" stroke="white" stroke-width="4.65" stroke-miterlimit="10"/>
<path d="M673.209 212.043H765.739H673.209Z" fill="#FAFAFA"/>
<path d="M673.209 212.043H765.739" stroke="white" stroke-width="4.65" stroke-miterlimit="10"/>
<path d="M673.209 226.336H765.739H673.209Z" fill="#FAFAFA"/>
<path d="M673.209 226.336H765.739" stroke="white" stroke-width="4.65" stroke-miterlimit="10"/>
<path d="M673.209 240.639H765.739H673.209Z" fill="#FAFAFA"/>
<path d="M673.209 240.639H765.739" stroke="white" stroke-width="4.65" stroke-miterlimit="10"/>
<path d="M673.209 324.139H765.739H673.209Z" fill="#FAFAFA"/>
<path d="M673.209 324.139H765.739" stroke="white" stroke-width="4.65" stroke-miterlimit="10"/>
<path d="M673.209 336.756H765.739H673.209Z" fill="#FAFAFA"/>
<path d="M673.209 336.756H765.739" stroke="white" stroke-width="4.65" stroke-miterlimit="10"/>
<path d="M746.298 433.367C747.228 434.14 747.974 435.111 748.479 436.21C748.986 437.307 749.239 438.506 749.22 439.715L749.006 468.311C748.999 469.391 748.778 470.458 748.358 471.452C747.938 472.446 747.325 473.347 746.555 474.103C745.787 474.86 744.875 475.456 743.876 475.86C742.876 476.263 741.805 476.464 740.727 476.453L697.871 476.082C695.698 476.062 693.621 475.178 692.099 473.626C690.576 472.074 689.73 469.981 689.748 467.804L690.001 439.188C690.083 437.032 690.985 434.99 692.523 433.479C694.06 431.966 696.116 431.101 698.27 431.057L741.126 431.427C743.026 431.444 744.857 432.131 746.298 433.367Z" fill="#FAFAFA"/>
<path d="M740.238 438.593L720.252 455.782C719.996 456 719.672 456.12 719.336 456.12C719.001 456.12 718.676 456 718.421 455.782L698.074 438.232C697.849 438.042 697.689 437.788 697.617 437.502C697.545 437.217 697.564 436.917 697.671 436.643C697.779 436.37 697.97 436.137 698.217 435.977C698.464 435.818 698.754 435.74 699.048 435.756L739.381 436.117C739.664 436.125 739.938 436.221 740.167 436.39C740.395 436.558 740.566 436.791 740.66 437.059C740.752 437.328 740.762 437.618 740.686 437.892C740.611 438.165 740.455 438.41 740.238 438.593Z" fill="#3DAE23"/>
<path d="M590.021 178.942C600.726 178.942 609.403 170.255 609.403 159.539C609.403 148.824 600.726 140.137 590.021 140.137C579.317 140.137 570.638 148.824 570.638 159.539C570.638 170.255 579.317 178.942 590.021 178.942Z" fill="#338B1F"/>
<path d="M720.663 131.741C724.24 131.741 727.14 128.838 727.14 125.257C727.14 121.677 724.24 118.773 720.663 118.773C717.085 118.773 714.186 121.677 714.186 125.257C714.186 128.838 717.085 131.741 720.663 131.741Z" fill="#FAFAFA"/>
<path d="M702.574 154.576C702.574 149.775 704.48 145.169 707.871 141.774C711.264 138.378 715.864 136.471 720.661 136.471C725.458 136.471 730.059 138.378 733.45 141.774C736.843 145.169 738.748 149.775 738.748 154.576H702.574Z" fill="#FAFAFA"/>
<g filter="url(#filter1_d_242_6645)">
<path d="M596.086 774.335C596.082 775.808 595.63 777.245 594.79 778.453C593.949 779.663 592.761 780.586 591.382 781.102L523.543 806.452C523.543 806.452 520.309 800.446 514.669 790.413L475.924 725.527C465.453 779.444 453.775 833.43 446.538 867.077L439.564 900.578L467.518 909.782C469.199 910.188 470.694 911.146 471.767 912.504C472.838 913.862 473.424 915.539 473.43 917.27C473.428 918.444 473.159 919.601 472.644 920.656C472.128 921.71 471.38 922.634 470.457 923.356C469.532 924.078 468.456 924.581 467.309 924.825C466.162 925.07 464.975 925.051 463.836 924.768L399.046 908.329V892.476L397.507 892.174L398.841 707.245L335.531 692.26C327.593 694.736 319.207 697.008 310.636 698.851C310.544 698.863 310.453 698.883 310.363 698.909C289.56 704.368 267.831 705.306 246.634 701.659C246.449 701.659 246.235 701.571 246.06 701.532C244.521 701.239 242.982 700.898 241.472 700.557C241.014 700.469 240.566 700.381 240.109 700.255C238.784 699.952 237.459 699.562 236.135 699.202C235.404 698.987 234.683 698.812 233.992 698.597C233.3 698.383 232.784 698.207 232.18 697.993C220.773 694.408 210.237 688.479 201.246 680.589C194.353 674.794 188.508 667.855 183.967 660.075C182.019 656.994 180.198 653.757 178.503 650.432C168.218 630.103 166.075 623.191 169.065 623.005C162.481 620.683 156.101 617.813 149.994 614.425C149.994 614.425 136.533 535.792 165.89 456.651C165.329 451.755 165.43 446.806 166.192 441.938C172.377 397.537 206.418 351.897 247.034 333.411C268.793 323.505 304.276 308.305 292.812 278.041C289.188 268.466 284.046 260.218 283.072 250.282C282.984 249.307 282.867 248.44 282.799 247.474C281.172 224.074 294.779 201.854 316.811 193.849C324.021 191.132 331.726 189.987 339.413 190.492C347.099 190.996 354.589 193.139 361.381 196.774C363.728 198.014 365.832 199.665 367.595 201.649C374.297 201.825 382.712 203.005 386.666 204.847C393.367 207.987 398.734 213.486 402.747 219.677C410.149 231.217 413.122 245.052 411.114 258.619C409.961 266.126 407.29 273.319 403.263 279.757C401.278 282.982 398.975 286 396.387 288.766C394.117 291.145 390.893 294.616 387.786 295.893C387.821 295.92 387.864 295.936 387.908 295.936C387.953 295.936 387.996 295.92 388.03 295.893L387.124 310.391C405.728 306.15 455.431 288.678 491.868 216.538C494.498 210.951 497.206 205.393 500.05 199.894C508.465 183.524 517.484 167.242 529.435 153.163C532.357 149.75 536.682 146.669 541.328 148.151C545.399 149.448 548.146 154.001 545.311 157.823L525.754 184.577L531.997 183.768C532.678 183.933 533.315 184.244 533.862 184.679C534.41 185.116 534.857 185.666 535.17 186.293C535.484 186.92 535.656 187.607 535.678 188.307C535.698 189.008 535.566 189.705 535.289 190.349L531.335 199.748L533.205 197.545C534.491 196.024 536.316 195.059 538.296 194.854C540.276 194.648 542.259 195.216 543.83 196.44C545.401 197.665 546.438 199.449 546.726 201.421C547.013 203.393 546.527 205.399 545.37 207.022L535.065 220.35C533.685 222.11 531.932 223.542 529.932 224.542L509.536 234.39C515.568 241.812 521.178 249.57 526.338 257.624C515.139 279.111 502.01 299.533 487.115 318.64C462.005 351.019 425.85 387.211 381.709 402.343C380.735 429.107 376.011 455.627 368.677 481.572C391.575 481.572 413.422 481.572 435.512 481.572L452.168 436.078C452.933 433.979 454.325 432.167 456.155 430.886C457.985 429.606 460.163 428.92 462.395 428.922H528.968C530.127 428.926 531.274 429.151 532.347 429.585C533.98 430.26 535.376 431.403 536.358 432.871C537.341 434.339 537.867 436.066 537.87 437.833C537.858 438.917 537.654 439.99 537.266 441.002L532.854 452.488H532.708H513.939L506.303 474.386L508.475 468.858H517.864C519.335 468.858 520.782 469.222 522.079 469.916C523.375 470.611 524.479 471.616 525.294 472.842C526.109 474.067 526.608 475.475 526.748 476.941C526.887 478.406 526.663 479.883 526.094 481.24L518.098 500.389C515.687 506.155 511.864 511.221 506.983 515.118C502.1 519.015 496.316 521.618 490.164 522.688L489.316 522.834L487.748 527.475L488.556 525.876C488.293 526.51 487.992 527.202 487.719 527.962H508.777C508.777 527.962 504.102 541.612 495.501 542.431C494.807 542.486 494.107 542.463 493.417 542.363H449.782C452.226 545.083 454.973 548.379 457.905 552.25C470.567 552.064 488.985 553.42 493.543 562.273C494.328 563.153 495.044 564.091 495.686 565.081C497.43 568.006 498.004 574.831 497.585 584.688C497.709 594.853 496.858 605.008 495.043 615.01C497.251 619.157 499.375 623.327 501.413 627.52C505.847 635.814 509.846 644.333 513.393 653.045C513.516 653.276 513.617 653.517 513.695 653.767C524.329 678.174 533.657 703.13 541.639 728.53L542.087 730.099C548.126 747.922 553.045 764.117 554.915 773.974L586.57 767.481C587.656 767.12 588.812 767.023 589.943 767.195C591.074 767.369 592.148 767.807 593.076 768.476C594.005 769.145 594.762 770.025 595.285 771.044C595.808 772.061 596.083 773.19 596.086 774.335Z" fill="white"/>
</g>
<path d="M497.5 521.5L493.5 483H502.5L508.5 471H511H521.5L525 479.5L520.5 490.5L515.5 503.5L507.5 514.5L497.5 521.5Z" fill="#EBD3C5" stroke="black"/>
<path d="M509 235.5L491 218.5L529 153.5L534 148.5H539.5L543 152L545 158.5L527 185H532.5L534 189L532.5 195.5H538L543 198L545 206L538 218.5L531 225L509 235.5Z" fill="#EBD3C5" stroke="black"/>
<path d="M371 222.5L373 210.5L382.5 223.5L385.5 246L391.5 253L395.5 257.5L387.5 261V267.5L385.5 276.5L382.5 286.5L375 295L368.5 297H356.5L355.5 337L336 333V304.5L328.5 272L331 255.5L344 243.5L363 232L371 222.5Z" fill="#EBD3C5" stroke="black"/>
<path d="M486.852 529.133H507.91C507.046 531.511 505.946 533.797 504.627 535.958C502.027 540.033 498.014 544.294 492.706 543.572H428.821C426.337 543.589 423.919 542.78 421.945 541.271C421.507 539.244 421.632 537.137 422.305 535.178C448.106 531.219 474.541 526.958 486.365 524.511L488.595 524.121L486.852 529.133Z" fill="#338B1F"/>
<path d="M537 434.344C536.988 435.549 536.774 436.744 536.368 437.87L531.758 450.642H512.097L504.02 475.166L501.083 483H437L451.848 439.965C452.654 437.63 454.114 435.613 456.03 434.189C457.947 432.765 460.229 432.001 462.566 432H532.258C533.472 432.002 534.673 432.253 535.797 432.738C536.187 432.907 536.569 433.099 536.939 433.313C536.969 433.639 537 434.007 537 434.344Z" fill="#338B1F"/>
<path d="M537.015 439.111C537.002 440.194 536.798 441.266 536.411 442.279L531.999 453.755H513.23L519.756 436.03C520.477 434.064 521.866 432.415 523.679 431.372C525.494 430.33 527.616 429.96 529.675 430.328C531.734 430.696 533.598 431.777 534.941 433.383C536.283 434.988 537.017 437.016 537.015 439.111Z" fill="#338B1F"/>
<path d="M507.902 529.133C507.902 529.133 501.863 546.897 490.896 543.075C484.078 540.726 485.101 533.93 486.883 529.094L507.902 529.133Z" fill="#338B1F"/>
<path d="M492.475 453.756H461.862H492.475Z" fill="#DFDCE3"/>
<path d="M492.475 453.756H461.862" stroke="white" stroke-width="4.65" stroke-linecap="round" stroke-linejoin="round"/>
<path d="M488.705 465.299H458.092" stroke="white" stroke-width="4.65" stroke-linecap="round" stroke-linejoin="round"/>
<path d="M512.686 654.225C507.385 641.393 501.201 628.945 494.18 616.97C497.024 601.887 498.963 575.464 492.797 563.472C488.239 554.609 469.84 553.264 457.139 553.449C447.331 540.472 439.403 533.783 439.403 533.783C439.403 533.783 380.359 543.358 366.879 543.436C353.398 543.514 353.408 550.992 353.408 550.992C353.408 550.992 344.019 579.355 333.402 593.443C322.786 607.532 294.228 624.643 253.076 631.234C211.925 637.825 179.559 629.704 172.137 625.57C164.715 621.436 164.472 625.423 177.757 651.622C191.042 677.82 211.496 696.657 245.849 702.868C267.038 706.52 288.762 705.582 309.559 700.118C309.559 700.118 363.918 686.4 379.862 675.938C395.806 665.477 398.3 679.702 398.3 679.702L396.741 893.402L438.818 901.807L475.168 726.765L513.933 791.7L554.208 775.125C549.465 750.194 525.105 684.45 512.686 654.225Z" fill="#339CC7"/>
<path d="M335.309 333.664C342.283 334.097 349.125 335.775 355.51 338.617C360.995 341.058 365.846 344.727 369.692 349.342C377.688 359.014 380.22 372.089 380.912 384.657C381.097 388.04 381.185 391.482 381.156 394.836C381.009 424.593 376.062 454.038 367.938 482.829C393.165 482.829 417.096 482.829 441.475 482.829H502.701L505.506 475.8L507.746 470.145H517.194C518.666 470.145 520.114 470.508 521.412 471.203C522.709 471.899 523.814 472.905 524.63 474.131C525.445 475.357 525.946 476.767 526.086 478.233C526.226 479.7 526.002 481.178 525.434 482.537L517.438 501.686C515.02 507.448 511.194 512.51 506.311 516.405C501.428 520.3 495.644 522.903 489.494 523.974L488.646 524.13L486.416 524.52C474.591 526.967 448.157 531.228 422.356 535.187C398.756 538.843 375.672 542.226 364.753 543.796C360.614 544.4 356.387 544.849 352.091 545.122C326.602 546.692 300.284 541.017 293.466 511.972C289.025 493.369 289.999 473.313 290.203 453.95" stroke="black" stroke-width="4.65" stroke-miterlimit="10"/>
<path d="M357 296L345.5 288.5V288L375.5 293L371.5 296L365.5 297.5L357 296Z" fill="#EBD3C5"/>
<path d="M326 193H335H347.5L361.5 198.5L368.5 206L371 216.5L365 227L350 239L335 248L328.5 258L327 277L332.5 301.5L335 328L332.5 360.5L327 386.5L319.5 408L311.5 426L299.5 442.5L282 461L245 481.5L225.5 486.5H200L185.5 483.5L176 478.5L168.5 470L165 459L168.5 430.5L176 408L192.5 381L212.5 358L231 343L263.5 328L280 315.5L290.5 307.5L295 294.5L293.5 282.5L287.5 270L283.5 255L282 237.5L287.5 224.5L295 209L303 201.5L311 197L326 193Z" fill="#FC4A1A" stroke="black"/>
<path d="M457.343 554.286C473.842 553.526 488.628 555.973 494.968 566.308C498.163 571.534 497.384 589.962 494.092 615.663" stroke="black" stroke-width="4.65" stroke-miterlimit="10"/>
<path d="M180.932 657.082C180.967 657.126 180.997 657.176 181.02 657.228C188.081 671.639 200.5 684.08 216.386 692.787C272.362 723.441 356.554 687.522 386.836 672.575C388.043 671.979 389.384 671.702 390.729 671.769C392.074 671.838 393.38 672.247 394.523 672.961C395.666 673.675 396.608 674.668 397.26 675.848C397.912 677.027 398.253 678.354 398.251 679.702V909.578L463.032 926.007C464.035 926.264 465.079 926.317 466.103 926.16C467.126 926.003 468.108 925.64 468.988 925.093C469.868 924.547 470.628 923.828 471.223 922.979C471.818 922.131 472.235 921.171 472.45 920.157C472.877 918.186 472.516 916.127 471.443 914.421C470.37 912.714 468.672 911.498 466.713 911.031L438.769 901.817C440.065 892.73 459.019 809.631 475.129 726.775" stroke="black" stroke-width="4.65" stroke-miterlimit="10"/>
<path d="M438.155 532.701C454.713 546.741 466.605 568.328 477.738 586.667C504.864 631.352 525.152 679.985 540.912 729.749C545.675 744.783 550.058 759.974 554.197 775.164L585.833 768.661C587.628 768.077 589.58 768.219 591.272 769.058C592.964 769.896 594.261 771.364 594.886 773.147C595.51 774.93 595.414 776.888 594.615 778.6C593.817 780.313 592.381 781.645 590.615 782.311L522.776 807.661C522.776 807.661 502.926 770.543 475.186 726.736C434.531 662.464 359.407 563.404 339.576 584.532" stroke="black" stroke-width="4.65" stroke-miterlimit="10"/>
<path d="M378.974 312.76C378.974 312.76 445.498 308.148 491.101 217.775C491.101 217.775 505.516 227.73 525.609 258.872C525.609 258.872 469.234 373.405 380.912 403.63" stroke="black" stroke-width="4.65" stroke-miterlimit="10"/>
<path d="M356.942 299.188L356.396 338.997" stroke="black" stroke-width="4.65" stroke-miterlimit="10"/>
<path d="M292.074 279.231C288.441 269.676 283.308 261.437 282.334 251.472C282.237 250.556 282.149 249.639 282.081 248.664C280.435 225.264 294.051 203.064 316.074 195.039C323.283 192.317 330.99 191.17 338.68 191.675C346.369 192.179 353.861 194.324 360.654 197.964C363.058 199.253 365.21 200.968 367.004 203.025L367.462 203.58C369.052 205.526 370.209 207.79 370.851 210.22C371.495 212.651 371.611 215.191 371.192 217.669C370.483 221.284 368.776 224.629 366.264 227.322C363.51 230.329 360.311 232.895 356.777 234.927C350.134 238.885 342.751 241.859 337.151 247.202C331.56 252.596 328.224 259.915 327.82 267.677C327.421 275.613 330.265 283.823 331.96 291.272C337.424 315.286 335.68 338.355 332.661 362.515C329.797 385.32 323.71 407.648 311.866 427.499C297.918 450.899 275.029 469.638 249.247 479.242C227.401 487.393 184.564 494.608 169.516 470.75C164.461 462.745 164.13 452.615 165.435 443.235C171.62 398.805 205.68 353.175 246.277 334.698C268.075 324.675 303.558 309.495 292.074 279.231Z" stroke="black" stroke-width="4.65" stroke-miterlimit="10"/>
<path d="M375.713 252.212C377.805 252.212 379.502 250.515 379.502 248.42C379.502 246.325 377.805 244.627 375.713 244.627C373.62 244.627 371.924 246.325 371.924 248.42C371.924 250.515 373.62 252.212 375.713 252.212Z" fill="black"/>
<path d="M374.826 236.193C374.826 236.193 361.999 241.985 366.06 253.246" stroke="black" stroke-width="4.65" stroke-miterlimit="10"/>
<path d="M382.019 218L371.226 203.5L373.679 201L387.415 206L399.679 216.5L405.566 231C406.711 237.833 409 251.7 409 252.5C409 253.3 405.075 266.833 403.113 273.5L392.811 287.5L385.943 295.5L378.094 308.5L383.981 325L399.679 339.5L406.057 354.5L404.585 372.5L397.717 384.5L387.415 390.5L382.019 392L379.566 378.5L376.132 360L368.774 347.5L358.472 339.5L357 299.5L371.226 297.5L382.019 289.5L387.415 278.5L389.377 265L392.811 260.5L397.717 255.5L389.377 249.5L385.943 234L382.019 218Z" fill="#FC4A1A" stroke="black"/>
<path d="M380.567 391.788C392.333 389.068 402.657 380.634 405.608 368.31C408.355 356.893 404.011 345.174 397.281 335.989C391.037 327.507 378.034 320.389 379.057 308.357C379.388 304.457 381.317 301.045 383.83 298.023C384.735 296.97 385.67 295.994 386.693 295" stroke="black" stroke-width="4.65" stroke-miterlimit="10"/>
<path d="M385.608 294.877C388.826 293.71 392.259 290.014 394.599 287.592C397.187 284.837 399.5 281.838 401.503 278.636C407.146 269.631 410.093 259.207 409.998 248.589C409.903 237.972 406.77 227.602 400.967 218.7C396.949 212.515 391.596 207.03 384.887 203.918C379.295 201.29 373.038 200.409 366.934 201.389C370.345 204.166 373.404 207.347 376.042 210.862C380.018 216.064 382.8 222.073 384.194 228.464C384.409 229.582 384.594 230.691 384.789 231.819C385.764 237.829 386.311 243.917 389.265 248.838C390.773 251.322 392.852 253.413 395.331 254.936C395.914 255.249 396.457 255.631 396.949 256.073C399.631 258.758 392.561 259.526 391.099 260.411C387.344 262.599 388.739 268.881 388.241 272.519C387.642 276.764 386.368 280.887 384.468 284.733C383.795 286.1 383.029 287.418 382.176 288.682C378.275 294.449 372.424 298.961 365.072 299C361.8 298.971 358.565 298.31 355.545 297.055C350.365 294.955 345.732 291.706 342 287.554" stroke="black" stroke-width="4.65" stroke-miterlimit="10"/>
<path d="M379.628 277.056C379.628 277.056 370.794 282.097 366.966 270.494" stroke="black" stroke-width="4.65" stroke-miterlimit="10"/>
<path d="M507.182 236.438L529.195 225.791C531.207 224.82 532.965 223.39 534.328 221.618L544.603 208.27C545.787 206.65 546.293 204.632 546.017 202.644C545.739 200.656 544.699 198.854 543.117 197.621C541.535 196.387 539.536 195.818 537.542 196.036C535.549 196.253 533.718 197.238 532.438 198.783L530.558 200.977L534.522 191.588C534.791 190.942 534.919 190.247 534.896 189.548C534.873 188.849 534.7 188.163 534.388 187.537C534.077 186.911 533.635 186.359 533.092 185.919C532.548 185.478 531.917 185.162 531.24 184.987L524.977 185.816L544.555 159.052C547.331 155.259 544.633 150.677 540.571 149.38C535.896 147.888 531.571 150.969 528.669 154.382C516.727 168.461 507.679 184.743 499.273 201.123C496.449 206.629 493.725 212.18 491.102 217.776" stroke="black" stroke-width="4.65" stroke-linejoin="round"/>
<path d="M524.988 185.814C524.988 185.814 512.218 201.717 530.568 200.976" stroke="black" stroke-width="4.65" stroke-miterlimit="10"/>
<path d="M489.434 523.965C489.434 523.965 479.967 539.341 490.993 543.114C502.018 546.887 508.047 529.142 508.047 529.142H486.765" stroke="black" stroke-width="4.65" stroke-miterlimit="10"/>
<path d="M492.823 543.562H448.915" stroke="black" stroke-width="4.65" stroke-miterlimit="10"/>
<path d="M537.149 439.111C537.137 440.194 536.932 441.266 536.545 442.279L532.143 453.755H513.374L519.89 436.03C520.611 434.064 522.001 432.415 523.814 431.372C525.628 430.33 527.751 429.96 529.81 430.328C531.869 430.696 533.734 431.777 535.076 433.383C536.418 434.988 537.151 437.016 537.149 439.111Z" stroke="black" stroke-width="4.65" stroke-miterlimit="10"/>
<path d="M445.506 453.755L434.792 482.82L451.418 437.356C452.187 435.254 453.585 433.44 455.419 432.16C457.254 430.879 459.438 430.195 461.674 430.199H528.237" stroke="black" stroke-width="4.65" stroke-miterlimit="10"/>
<path d="M502.721 482.821L513.377 453.756" stroke="black" stroke-width="4.65" stroke-miterlimit="10"/>
<path d="M165.18 457.869C135.814 537.01 149.274 615.663 149.274 615.663C193.63 640.37 256.521 638.225 301.569 616.511C317.504 608.809 334.685 597.206 341.639 580.202C346.743 567.752 352.051 555.398 356.425 542.772" stroke="black" stroke-width="4.65" stroke-miterlimit="10"/>
<path d="M139.857 704.799H398.288" stroke="black" stroke-width="4.65" stroke-miterlimit="10"/>
<path d="M367.96 482.85L365.174 492.278" stroke="black" stroke-width="4.65" stroke-miterlimit="10"/>
<path d="M181.019 657.227C181.019 657.227 169.643 636.908 165.941 623.385" stroke="black" stroke-width="4.65" stroke-miterlimit="10"/>
<path d="M667.166 294V265.8H672.286V289.64H685.806V294H667.166ZM697.872 294.4C695.845 294.4 694.085 293.987 692.592 293.16C691.098 292.333 689.938 291.16 689.112 289.64C688.285 288.093 687.872 286.28 687.872 284.2C687.872 282.12 688.285 280.32 689.112 278.8C689.938 277.28 691.098 276.107 692.592 275.28C694.085 274.453 695.845 274.04 697.872 274.04C699.898 274.04 701.658 274.453 703.152 275.28C704.645 276.107 705.805 277.28 706.632 278.8C707.458 280.32 707.872 282.12 707.872 284.2C707.872 286.28 707.458 288.093 706.632 289.64C705.805 291.16 704.645 292.333 703.152 293.16C701.658 293.987 699.898 294.4 697.872 294.4ZM697.872 290.6C699.365 290.6 700.565 290.067 701.472 289C702.378 287.907 702.832 286.307 702.832 284.2C702.832 282.067 702.378 280.48 701.472 279.44C700.565 278.373 699.365 277.84 697.872 277.84C696.378 277.84 695.178 278.373 694.272 279.44C693.365 280.48 692.912 282.067 692.912 284.2C692.912 286.307 693.365 287.907 694.272 289C695.178 290.067 696.378 290.6 697.872 290.6ZM721.118 301.6C719.305 301.6 717.598 301.387 715.998 300.96C714.425 300.56 713.038 299.933 711.838 299.08L713.278 295.6C714.398 296.347 715.598 296.893 716.878 297.24C718.158 297.613 719.438 297.8 720.718 297.8C724.292 297.8 726.078 296.08 726.078 292.64V289.96C725.518 291.053 724.652 291.92 723.478 292.56C722.332 293.2 721.052 293.52 719.638 293.52C717.878 293.52 716.345 293.12 715.038 292.32C713.732 291.493 712.718 290.347 711.998 288.88C711.278 287.413 710.918 285.707 710.918 283.76C710.918 281.813 711.278 280.12 711.998 278.68C712.718 277.213 713.732 276.08 715.038 275.28C716.345 274.453 717.878 274.04 719.638 274.04C721.105 274.04 722.412 274.373 723.558 275.04C724.705 275.68 725.545 276.547 726.078 277.64V274.44H730.958V292.04C730.958 295.213 730.118 297.6 728.438 299.2C726.758 300.8 724.318 301.6 721.118 301.6ZM720.998 289.72C722.545 289.72 723.772 289.187 724.678 288.12C725.585 287.053 726.038 285.6 726.038 283.76C726.038 281.92 725.585 280.48 724.678 279.44C723.772 278.373 722.545 277.84 720.998 277.84C719.452 277.84 718.225 278.373 717.318 279.44C716.412 280.48 715.958 281.92 715.958 283.76C715.958 285.6 716.412 287.053 717.318 288.12C718.225 289.187 719.452 289.72 720.998 289.72ZM746.6 270.24V265.36H752.2V270.24H746.6ZM746.92 294V274.44H751.92V294H746.92ZM757.116 294V274.44H761.996V277.48C762.662 276.36 763.556 275.507 764.676 274.92C765.822 274.333 767.102 274.04 768.516 274.04C773.129 274.04 775.436 276.72 775.436 282.08V294H770.436V282.32C770.436 280.8 770.142 279.693 769.556 279C768.996 278.307 768.116 277.96 766.916 277.96C765.449 277.96 764.276 278.427 763.396 279.36C762.542 280.267 762.116 281.48 762.116 283V294H757.116Z" fill="#FAFAFA"/>
<path d="M395.5 702.5H310L388.5 674H390.5H392.5L394 675L395.5 678V702.5Z" fill="#F0F0F0" stroke="black"/>
<path d="M494.107 483L497 523.46V525.483L496.036 526.494L495.071 527H494.589H494.107H493.625H492.179H490.732H478.196H470" stroke="black" stroke-width="4"/>
<defs>
<filter id="filter0_d_242_6645" x="318.675" y="49.6758" width="525.65" height="504.648" filterUnits="userSpaceOnUse" color-interpolation-filters="sRGB">
<feFlood flood-opacity="0" result="BackgroundImageFix"/>
<feColorMatrix in="SourceAlpha" type="matrix" values="0 0 0 0 0 0 0 0 0 0 0 0 0 0 0 0 0 0 127 0" result="hardAlpha"/>
<feOffset dx="-5" dy="4"/>
<feGaussianBlur stdDeviation="4"/>
<feComposite in2="hardAlpha" operator="out"/>
<feColorMatrix type="matrix" values="0 0 0 0 0 0 0 0 0 0 0 0 0 0 0 0 0 0 0.25 0"/>
<feBlend mode="normal" in2="BackgroundImageFix" result="effect1_dropShadow_242_6645"/>
<feBlend mode="normal" in="SourceGraphic" in2="effect1_dropShadow_242_6645" result="shape"/>
</filter>
<filter id="filter1_d_242_6645" x="128.914" y="143.77" width="467.172" height="793.227" filterUnits="userSpaceOnUse" color-interpolation-filters="sRGB">
<feFlood flood-opacity="0" result="BackgroundImageFix"/>
<feColorMatrix in="SourceAlpha" type="matrix" values="0 0 0 0 0 0 0 0 0 0 0 0 0 0 0 0 0 0 127 0" result="hardAlpha"/>
<feOffset dx="-10" dy="4"/>
<feGaussianBlur stdDeviation="4"/>
<feComposite in2="hardAlpha" operator="out"/>
<feColorMatrix type="matrix" values="0 0 0 0 0 0 0 0 0 0 0 0 0 0 0 0 0 0 0.25 0"/>
<feBlend mode="normal" in2="BackgroundImageFix" result="effect1_dropShadow_242_6645"/>
<feBlend mode="normal" in="SourceGraphic" in2="effect1_dropShadow_242_6645" result="shape"/>
</filter>
</defs>
</svg>
