<svg width="948" height="957" viewBox="0 0 948 957" fill="none" xmlns="http://www.w3.org/2000/svg">
<g filter="url(#filter0_d_298_6768)">
<path d="M427.349 191.744V94.9467C427.333 88.2967 424.699 81.9237 420.023 77.2214C415.348 72.5192 409.012 69.8701 402.401 69.8535H83.6942C77.0826 69.8701 70.7465 72.5192 66.0714 77.2214C61.3963 81.9237 58.7626 88.2967 58.7461 94.9467V550.091C58.7579 556.738 61.3919 563.108 66.0696 567.803C70.7472 572.497 77.0861 575.133 83.6942 575.13H402.401C405.492 575.15 408.558 574.557 411.422 573.388" stroke="#338B1F" stroke-width="7.24" stroke-linecap="round" stroke-linejoin="round" shape-rendering="crispEdges"/>
</g>
<path d="M403.072 69.8125H82.9322C69.8692 69.8125 59.2795 80.5027 59.2795 93.6896V551.528C59.2795 564.715 69.8692 575.405 82.9322 575.405H403.072C416.135 575.405 426.724 564.715 426.724 551.528V93.6896C426.724 80.5027 416.135 69.8125 403.072 69.8125Z" fill="#3DAE23"/>
<g filter="url(#filter1_d_298_6768)">
<path d="M410.646 132.141H455.57L499.342 142.619L530.442 168.232L548.297 214.219L551.176 254.385L539.081 290.476L521.227 306.776L512.588 330.06L492.43 332.971L476.88 345.195L473.424 381.287L487.823 385.944L568.455 420.288L631.808 475.007L676.156 551.265L702.073 663.613L691.13 795.172L657.725 858.622L619.137 876.086L225.193 867.936L185.453 863.861L150.897 835.92L127.859 766.648L132.467 661.867L171.631 543.697L211.947 469.768L268.389 420.871L325.407 390.018L388.761 378.376L395.096 330.06L380.698 321.911L336.926 313.179L317.344 286.984L321.951 234.011L346.717 179.874L375.514 150.186L410.646 132.141Z" fill="white"/>
<path d="M410.646 132.141H455.57L499.342 142.619L530.442 168.232L548.297 214.219L551.176 254.385L539.081 290.476L521.227 306.776L512.588 330.06L492.43 332.971L476.88 345.195L473.424 381.287L487.823 385.944L568.455 420.288L631.808 475.007L676.156 551.265L702.073 663.613L691.13 795.172L657.725 858.622L619.137 876.086L225.193 867.936L185.453 863.861L150.897 835.92L127.859 766.648L132.467 661.867L171.631 543.697L211.947 469.768L268.389 420.871L325.407 390.018L388.761 378.376L395.096 330.06L380.698 321.911L336.926 313.179L317.344 286.984L321.951 234.011L346.717 179.874L375.514 150.186L410.646 132.141Z" stroke="black"/>
</g>
<path d="M503.5 637.5L511.5 624L565 648L581.5 650L586.5 637.5V620L591.5 597L607 530.5L612.5 490L615.5 482.5L629 476.5L670.5 542L693 613L702 717L685 800L666.5 842L653.5 857L645 867.5L624.5 874.5H607L592.5 871.5L576 861.5L560 834L550.5 789L552.5 728L554.5 717L533 713L524 708.5L511.5 700.5V687.5L507 683V668.5L503.5 660L507 650L503.5 637.5Z" fill="#EBD3C5" stroke="black"/>
<path d="M234 479L213 475.5L186.5 515.5L159.5 577L135 657L128 738L132.5 775L141 807L154.5 839L184 859.5L207 865L240 859.5L265 848.5L291 829.5L308 812L322.5 790.5L336 759.5L345 738L359.5 721L379.5 705.5L397 699.5L413 629.5L416 611L391 613.5L359.5 626.5L329.5 649L277 686L270.5 672L266 657L263.5 626.5L277 589.5L296.5 564.5L290 535.5L277 506.5L258 488L234 479Z" fill="#EBD3C5" stroke="black"/>
<path d="M397.28 108.936H92.7444C86.2103 108.936 80.9133 114.283 80.9133 120.879V191.659C80.9133 198.255 86.2103 203.602 92.7444 203.602H397.28C403.814 203.602 409.111 198.255 409.111 191.659V120.879C409.111 114.283 403.814 108.936 397.28 108.936Z" fill="#3DAE23"/>
<path d="M343.123 613.375L338.544 611.8H337.526L336 606.025V602.875L338.544 598.15L342.614 595H345.667L390.947 606.025L394 608.65L376.193 616L356.351 614.95L343.123 613.375Z" fill="#339CC7" stroke="black"/>
<path d="M578.754 647.888L584.764 619.934L587.968 605.004L611.725 494.319C612.077 492.67 612.06 490.964 611.673 489.322C611.287 487.682 610.542 486.15 609.494 484.838C608.444 483.526 607.118 482.466 605.612 481.739C604.104 481.012 602.456 480.634 600.785 480.633H458.718C456.191 480.631 453.737 481.493 451.759 483.081C449.78 484.668 448.393 486.885 447.826 489.37L419.85 610.47L399.43 698.829L397.534 707.107C397.157 708.764 397.154 710.485 397.526 712.143C397.897 713.801 398.635 715.353 399.681 716.684C400.729 718.016 402.06 719.091 403.575 719.832C405.091 720.574 406.752 720.96 408.436 720.964H551.196" stroke="black" stroke-width="7.24" stroke-miterlimit="10"/>
<path d="M243.003 148.805C248.358 148.805 252.701 144.422 252.701 139.015C252.701 133.608 248.358 129.225 243.003 129.225C237.647 129.225 233.305 133.608 233.305 139.015C233.305 144.422 237.647 148.805 243.003 148.805Z" fill="white"/>
<path d="M397.5 239.5L404.5 246L415.5 249L426 239.5L438.5 234L465.5 230.5H483L497 234L505 236.5L509.5 249V281.5L505 305L492.5 329L472.5 343V386.5H479.5L517.5 397L548.5 410.5L568 423.5L532 447L475 468H426L390.5 460L352 442.5L316.5 413.5L306.5 401L312 397L355 385L390.5 379L396 330.5H404.5L415.5 327L423 322L426 314V303L423 291.5L417.5 283.5L410.5 276.5L401.5 273.5L393.5 275L390.5 271L385.5 259.5V252.5V244L390.5 239.5H397.5Z" fill="#EBD3C5" stroke="black"/>
<path d="M215.896 183.314C215.896 176.057 218.751 169.098 223.834 163.967C228.917 158.836 235.811 155.953 242.999 155.953C250.188 155.953 257.081 158.836 262.164 163.967C267.247 169.098 270.102 176.057 270.102 183.314H215.896Z" fill="white"/>
<path d="M113.731 245.863L317.92 246.818" stroke="white" stroke-width="7.24" stroke-miterlimit="10"/>
<path d="M113.731 271.215L315.616 271.267" stroke="white" stroke-width="7.24" stroke-miterlimit="10"/>
<path d="M114.036 434.26H336.35" stroke="white" stroke-width="7.24" stroke-miterlimit="10"/>
<path d="M173.01 458.488H309.645" stroke="white" stroke-width="7.24" stroke-miterlimit="10"/>
<path d="M629.587 474.825C628.639 475.102 616.542 478.653 611.783 487.113C610.877 485.176 609.445 483.539 607.652 482.394C605.859 481.248 603.78 480.641 601.659 480.643H459.601C457.074 480.638 454.619 481.501 452.641 483.088C450.662 484.675 449.275 486.893 448.708 489.381L420.733 610.47C418.837 610.097 416.941 609.867 414.969 609.676L348.95 593.043C346.119 592.325 343.123 592.699 340.55 594.093C337.976 595.485 336.01 597.796 335.034 600.574C334.594 601.821 334.376 603.136 334.389 604.46C334.389 607.465 335.518 610.359 337.549 612.558C339.578 614.756 342.359 616.096 345.329 616.308L376.547 618.336C346.476 632.624 309.893 659.841 279.358 684.848C249.647 637.888 277.528 590.938 298.498 565.654C295.796 537.786 282.107 473.083 213.803 474.844C237.333 444.383 266.673 418.276 303.029 400.801C427.558 540.14 570.024 426.219 573.048 423.769C594.353 437.798 613.418 455.021 629.587 474.844" fill="#FC4A1A"/>
<path d="M616.645 874.546V898.624H205.394V864.516C221.415 865.473 238.27 861.645 253.599 854.669C273.005 845.75 289.766 831.892 304.099 816.083C318.841 799.718 326.937 777.027 336.331 757.294C350.438 727.579 369.123 706.41 398.776 697.443L396.88 705.674C396.5 707.33 396.494 709.053 396.864 710.712C397.234 712.371 397.969 713.925 399.016 715.257C400.063 716.59 401.393 717.667 402.909 718.408C404.426 719.15 406.088 719.538 407.773 719.54H550.541C547.697 744.422 535.705 880.317 616.645 874.575" fill="#FC4A1A"/>
<path d="M550.607 241.288C550.492 254.163 548.83 266.974 545.658 279.444C544.212 285.356 541.105 290.72 536.713 294.895C532.321 299.069 526.829 301.875 520.897 302.976C520.66 294.287 517 286.66 511.417 281.922C511.927 274.566 511.854 267.18 511.199 259.835C510.829 254.983 510.251 250.456 509.644 246.389C509.283 244.074 508.76 241.788 508.08 239.546C506.174 237.48 503.929 235.761 501.444 234.465C492.656 229.469 474.568 224.158 441.056 231.967C435.584 233.232 430.437 235.641 425.945 239.039C425.845 239.102 425.756 239.18 425.679 239.269C422.655 242.083 418.806 245.643 414.825 247.49C410.701 249.404 406.397 249.48 402.785 244.954C402.69 244.858 402.643 244.772 402.558 244.676C400.662 242.178 398.851 238.934 395.505 238.293C388.452 236.953 385.02 244.035 384.129 249.987C383.351 255.49 384.953 260.342 387.295 264.964C389.256 268.723 391.819 272.128 394.879 275.042C395.665 275.809 396.384 276.641 397.031 277.53C396.737 277.582 396.448 277.663 396.168 277.769C395.52 277.989 394.887 278.251 394.272 278.554C385.74 282.43 379.664 292.143 379.531 303.512C379.531 303.866 365.226 303.656 363.415 303.512C356.438 302.862 349.565 300.833 344.654 295.521C330.718 280.449 330.785 258.084 336.511 240.59C341.933 223.986 348.835 207.774 357.879 192.835C377.474 160.508 407.876 136.659 446.365 134.516C455.596 134.048 464.848 134.593 473.961 136.143C478.274 136.829 482.539 137.788 486.731 139.014C525.968 156.297 550.872 195.477 550.645 241.288" fill="#2E2E2E"/>
<path d="M527.884 609.829C523.248 621.839 512.214 628.711 503.236 625.141C494.259 621.571 490.732 609.016 495.358 597.005C499.985 584.995 511.029 578.114 520.006 581.693C528.984 585.272 532.52 597.828 527.884 609.839" fill="#339CC7"/>
<path d="M551.738 717.089C551.738 717.089 526.559 894.278 627.274 874.64C727.44 855.089 765.351 443.722 475.414 384.561" stroke="black" stroke-width="7.24" stroke-miterlimit="10"/>
<path d="M315.931 546.504C315.931 546.504 234.669 615.686 278.457 684.877" stroke="black" stroke-width="7.24" stroke-miterlimit="10"/>
<path d="M553.567 667.872C552.173 667.958 550.182 667.02 548.827 666.647C547.107 666.187 545.404 665.695 543.717 665.173C533.816 662.063 524.501 657.301 516.159 651.086C514.263 649.717 510.888 648.837 508.575 649.736C507.286 650.213 506.15 651.03 505.282 652.103C504.416 653.175 503.85 654.463 503.645 655.833C502.934 660.771 506.385 665.604 510.148 668.771C514.613 672.542 519.249 676.016 524.662 678.274C529.886 680.392 535.277 682.066 540.778 683.279C543.271 683.863 545.802 684.236 548.277 684.878" stroke="black" stroke-width="7.24" stroke-miterlimit="10"/>
<path d="M584.755 619.936C585.779 625.39 586.527 631.056 586.016 636.597C585.589 641.286 583.92 646.76 578.754 647.899C577.772 648.161 576.753 648.255 575.739 648.177C556.286 647.019 540.256 640.234 521.95 626.874C503.644 613.514 497.197 644.282 513.92 649.737" stroke="black" stroke-width="7.24" stroke-miterlimit="10"/>
<path d="M514.624 672.484C514.174 672.11 513.747 671.71 513.344 671.287C504.234 661.67 502.584 680.991 512.149 686.676L513.382 687.413C514.026 687.69 514.718 688.016 515.401 688.37C515.723 688.456 516.084 688.599 516.415 688.695C525.061 692.523 534.266 694.973 543.329 697.471C534.361 694.514 525.421 691.604 516.415 688.695C515.638 688.37 514.899 688.044 514.121 687.671C513.882 687.571 513.635 687.494 513.382 687.442C513.22 687.368 513.042 687.337 512.866 687.354C512.69 687.371 512.521 687.434 512.377 687.537C512.16 687.716 512.002 687.956 511.922 688.226C510.452 691.786 511.647 696.275 513.524 699.461C515.496 702.83 518.88 705.423 522.217 707.27C531.195 712.352 541.631 715.357 551.709 717.156C553.579 717.547 555.493 717.673 557.397 717.529" stroke="black" stroke-width="7.24" stroke-miterlimit="10"/>
<path d="M638.689 739.455C638.689 739.455 607.794 686.303 604.353 640.09C602.248 611.485 593.925 605.427 587.971 605.016" stroke="black" stroke-width="7.24" stroke-miterlimit="10"/>
<path d="M402.615 241.768C402.615 241.768 410.132 209.584 452.584 205.316C495.035 201.047 505.672 233.069 505.672 233.069L504.335 236.294C504.335 236.294 448.526 213.689 417.707 245.95C417.707 245.95 406.606 251.031 402.615 241.787" fill="#339CC7"/>
<path d="M414.068 609.675L348.039 593.024C346.465 592.63 344.826 592.572 343.227 592.851C341.629 593.132 340.106 593.744 338.754 594.65C337.403 595.557 336.253 596.738 335.378 598.117C334.502 599.496 333.921 601.043 333.67 602.661C333.419 604.28 333.505 605.933 333.921 607.516C334.337 609.099 335.074 610.578 336.088 611.857C337.1 613.137 338.365 614.19 339.803 614.95C341.24 615.709 342.819 616.159 344.437 616.269L375.655 618.346" stroke="black" stroke-width="7.24" stroke-miterlimit="10"/>
<path d="M572.195 423.721C572.195 423.721 427.975 541.662 302.138 400.801" stroke="black" stroke-width="7.24" stroke-miterlimit="10"/>
<path d="M297.616 565.634C294.914 537.766 281.235 473.016 212.874 474.824" stroke="black" stroke-width="7.24" stroke-miterlimit="10"/>
<path d="M628.723 474.807C628.723 474.807 615.84 478.386 610.901 487.133" stroke="black" stroke-width="7.24" stroke-miterlimit="10"/>
<path d="M105.343 900.059H717.666" stroke="black" stroke-width="7.24" stroke-miterlimit="10"/>
<path d="M511.419 281.961C517.192 286.861 520.899 294.861 520.899 303.915C520.899 318.939 510.556 331.093 497.777 331.093C496.331 331.086 494.89 330.915 493.482 330.586C508.366 319.102 511.381 281.961 511.381 281.961" fill="#339CC7"/>
<path d="M427.228 342.607C434.402 346.211 442.253 348.236 450.261 348.548C458.269 348.86 466.251 347.451 473.679 344.416C515.562 326.759 513.96 274.717 509.609 246.428C509.262 244.134 508.768 241.864 508.13 239.634V239.586C503.323 223.413 490.781 210.235 474.258 206.493C442.253 199.191 412.989 217.508 400.845 242.17" stroke="black" stroke-width="7.24" stroke-miterlimit="10"/>
<path d="M508.525 240.14C508.525 240.14 508.392 239.948 508.118 239.633V239.585C505.274 236.35 488.807 220.914 441.141 232.005C435.672 233.268 430.527 235.677 426.04 239.078C425.935 239.139 425.839 239.216 425.755 239.307" stroke="black" stroke-width="7.24" stroke-miterlimit="10"/>
<path d="M381.477 318.537H357.9C340.884 318.537 327.394 302.804 321.526 288.038C313.278 267.271 318.558 246.016 325.981 225.833C332.2 208.942 340.106 192.529 350.506 177.839C373.789 144.966 408.941 126.343 449.344 129.788C452.928 130.094 456.495 130.54 460.047 131.128C514.301 140.009 550.885 185.801 550.61 241.259C550.496 254.143 548.835 266.964 545.661 279.444C544.202 285.351 541.092 290.71 536.7 294.883C532.308 299.056 526.82 301.864 520.89 302.976" stroke="black" stroke-width="7.24" stroke-miterlimit="10"/>
<path d="M397.052 277.53C396.402 276.64 395.683 275.805 394.9 275.032C391.837 272.123 389.274 268.721 387.316 264.965C384.974 260.342 383.372 255.491 384.149 249.988C385.022 244.073 388.453 236.953 395.525 238.293C398.872 238.944 400.654 242.179 402.579 244.676C409.897 254.246 419.974 244.629 426.155 238.848" stroke="black" stroke-width="7.24" stroke-miterlimit="10"/>
<path d="M511.419 281.961C517.192 286.861 520.899 294.861 520.899 303.915C520.899 318.939 510.556 331.093 497.777 331.093C496.331 331.086 494.89 330.915 493.482 330.586" stroke="black" stroke-width="7.24" stroke-miterlimit="10"/>
<path d="M461.942 300.402C467.118 303.914 479.623 306.795 477.11 296.383C474.096 284.047 470.038 257.691 494.885 255.682C494.885 255.682 505.825 256.151 511.229 259.902" stroke="black" stroke-width="7.24" stroke-miterlimit="10"/>
<path d="M471.298 321.026C471.298 321.026 458.785 327.725 452.585 314.375" stroke="black" stroke-width="7.24" stroke-miterlimit="10"/>
<path d="M445.922 273.702C445.439 277.941 447.079 281.606 449.591 281.903C452.103 282.2 454.53 279.032 455.023 274.764C455.516 270.496 453.857 266.869 451.354 266.572C448.851 266.275 446.406 269.443 445.922 273.702Z" fill="black"/>
<path d="M486.668 276.201C486.185 280.43 487.825 284.105 490.337 284.402C492.849 284.699 495.276 281.531 495.759 277.263C496.243 272.995 494.603 269.358 492.1 269.071C489.597 268.784 487.151 271.942 486.668 276.201Z" fill="black"/>
<path d="M461.942 258.39C461.942 258.39 454.282 246.466 436.925 257.778" stroke="black" stroke-width="7.24" stroke-miterlimit="10"/>
<path d="M475.403 343.631V409.779" stroke="black" stroke-width="7.24" stroke-miterlimit="10"/>
<path d="M216.355 739.454C216.355 739.454 243.364 713.615 278.44 684.905C308.975 659.899 345.596 632.634 375.676 618.356C379.525 616.547 383.26 614.93 386.891 613.571C395.554 610.238 404.853 608.928 414.089 609.743C416.022 609.904 417.947 610.165 419.853 610.528" stroke="black" stroke-width="7.24" stroke-miterlimit="10"/>
<path d="M399.432 698.83C369.769 707.797 351.084 728.966 336.987 758.681C327.612 778.414 319.497 801.104 304.755 817.469C290.431 833.269 273.67 847.136 254.265 856.055C219.056 872.229 175.704 870.985 152.829 835.815C137.358 811.966 131.271 782.338 128.181 754.47C122.872 706.036 139.633 569.511 212.875 474.815C236.405 444.354 265.755 418.247 302.101 400.772C327.612 388.542 356.45 380.541 389.137 378.273L398.294 330.586" stroke="black" stroke-width="7.24" stroke-miterlimit="10"/>
<path d="M617.3 876.152V900.058" stroke="black" stroke-width="7.24" stroke-miterlimit="10"/>
<path d="M206.05 867.617V900.06" stroke="black" stroke-width="7.24" stroke-miterlimit="10"/>
<path d="M424.997 306.534C425.102 314.067 422.157 321.371 416.72 327.061C413.671 328.341 410.351 329.003 406.993 329C392.087 329 380.003 316.24 380.003 300.466C379.895 292.934 382.847 285.631 388.291 279.949C391.338 278.662 394.658 277.997 398.018 278C412.924 278 424.997 290.77 424.997 306.534Z" fill="#339CC7"/>
<path d="M402.616 331.094C415.37 331.094 425.709 318.926 425.709 303.915C425.709 288.905 415.37 276.736 402.616 276.736C389.861 276.736 379.522 288.905 379.522 303.915C379.522 318.926 389.861 331.094 402.616 331.094Z" stroke="black" stroke-width="7.24" stroke-miterlimit="10"/>
<path d="M166.994 343.114L166.634 338.914L169.474 338.754C171.847 338.594 173.034 337.287 173.034 334.834V314.554H178.154V334.794C178.154 339.861 175.527 342.581 170.274 342.954L166.994 343.114ZM192.772 343.154C190.746 343.154 188.986 342.741 187.492 341.914C185.999 341.087 184.839 339.914 184.012 338.394C183.186 336.847 182.772 335.034 182.772 332.954C182.772 330.874 183.186 329.074 184.012 327.554C184.839 326.034 185.999 324.861 187.492 324.034C188.986 323.207 190.746 322.794 192.772 322.794C194.799 322.794 196.559 323.207 198.052 324.034C199.546 324.861 200.706 326.034 201.532 327.554C202.359 329.074 202.772 330.874 202.772 332.954C202.772 335.034 202.359 336.847 201.532 338.394C200.706 339.914 199.546 341.087 198.052 341.914C196.559 342.741 194.799 343.154 192.772 343.154ZM192.772 339.354C194.266 339.354 195.466 338.821 196.372 337.754C197.279 336.661 197.732 335.061 197.732 332.954C197.732 330.821 197.279 329.234 196.372 328.194C195.466 327.127 194.266 326.594 192.772 326.594C191.279 326.594 190.079 327.127 189.172 328.194C188.266 329.234 187.812 330.821 187.812 332.954C187.812 335.061 188.266 336.661 189.172 337.754C190.079 338.821 191.279 339.354 192.772 339.354ZM206.579 318.994V314.114H212.179V318.994H206.579ZM206.899 342.754V323.194H211.899V342.754H206.899ZM217.094 342.754V323.194H221.974V326.234C222.641 325.114 223.534 324.261 224.654 323.674C225.801 323.087 227.081 322.794 228.494 322.794C233.108 322.794 235.414 325.474 235.414 330.834V342.754H230.414V331.074C230.414 329.554 230.121 328.447 229.534 327.754C228.974 327.061 228.094 326.714 226.894 326.714C225.428 326.714 224.254 327.181 223.374 328.114C222.521 329.021 222.094 330.234 222.094 331.754V342.754H217.094ZM258.354 343.154C253.554 343.154 251.154 340.461 251.154 335.074V323.194H256.154V335.154C256.154 336.541 256.434 337.567 256.994 338.234C257.554 338.901 258.448 339.234 259.674 339.234C261.008 339.234 262.101 338.781 262.954 337.874C263.808 336.941 264.234 335.714 264.234 334.194V323.194H269.234V342.754H264.354V339.834C263.048 342.047 261.048 343.154 258.354 343.154ZM281.598 343.154C279.945 343.154 278.398 342.954 276.958 342.554C275.518 342.154 274.318 341.581 273.358 340.834L274.638 337.554C275.625 338.221 276.732 338.741 277.958 339.114C279.185 339.461 280.412 339.634 281.638 339.634C282.918 339.634 283.865 339.421 284.478 338.994C285.118 338.541 285.438 337.954 285.438 337.234C285.438 336.114 284.612 335.394 282.958 335.074L278.958 334.314C275.572 333.674 273.878 331.914 273.878 329.034C273.878 327.754 274.225 326.647 274.918 325.714C275.638 324.781 276.625 324.061 277.878 323.554C279.132 323.047 280.572 322.794 282.198 322.794C283.585 322.794 284.918 322.994 286.198 323.394C287.478 323.767 288.572 324.341 289.478 325.114L288.118 328.394C287.345 327.754 286.412 327.247 285.318 326.874C284.252 326.501 283.225 326.314 282.238 326.314C280.932 326.314 279.958 326.541 279.318 326.994C278.705 327.447 278.398 328.047 278.398 328.794C278.398 329.967 279.158 330.687 280.678 330.954L284.678 331.714C286.412 332.034 287.718 332.621 288.598 333.474C289.505 334.327 289.958 335.474 289.958 336.914C289.958 338.861 289.198 340.394 287.678 341.514C286.158 342.607 284.132 343.154 281.598 343.154ZM192.153 382.754V363.194H197.033V366.234C197.7 365.114 198.593 364.261 199.713 363.674C200.86 363.087 202.14 362.794 203.553 362.794C208.166 362.794 210.473 365.474 210.473 370.834V382.754H205.473V371.074C205.473 369.554 205.18 368.447 204.593 367.754C204.033 367.061 203.153 366.714 201.953 366.714C200.486 366.714 199.313 367.181 198.433 368.114C197.58 369.021 197.153 370.234 197.153 371.754V382.754H192.153ZM224.472 383.154C222.445 383.154 220.685 382.741 219.192 381.914C217.698 381.087 216.538 379.914 215.712 378.394C214.885 376.847 214.472 375.034 214.472 372.954C214.472 370.874 214.885 369.074 215.712 367.554C216.538 366.034 217.698 364.861 219.192 364.034C220.685 363.207 222.445 362.794 224.472 362.794C226.498 362.794 228.258 363.207 229.752 364.034C231.245 364.861 232.405 366.034 233.232 367.554C234.058 369.074 234.472 370.874 234.472 372.954C234.472 375.034 234.058 376.847 233.232 378.394C232.405 379.914 231.245 381.087 229.752 381.914C228.258 382.741 226.498 383.154 224.472 383.154ZM224.472 379.354C225.965 379.354 227.165 378.821 228.072 377.754C228.978 376.661 229.432 375.061 229.432 372.954C229.432 370.821 228.978 369.234 228.072 368.194C227.165 367.127 225.965 366.594 224.472 366.594C222.978 366.594 221.778 367.127 220.872 368.194C219.965 369.234 219.512 370.821 219.512 372.954C219.512 375.061 219.965 376.661 220.872 377.754C221.778 378.821 222.978 379.354 224.472 379.354ZM243.608 382.754L235.888 363.194H241.008L246.008 376.954L251.048 363.194H254.568L259.608 377.034L264.608 363.194H269.448L261.768 382.754H257.408L252.648 370.154L247.968 382.754H243.608ZM273.149 374.394L271.589 354.554H277.749L276.189 374.394H273.149ZM271.869 382.754V377.194H277.469V382.754H271.869Z" fill="white"/>
<path d="M400.279 134.47L448.659 129.23L486.671 134.47L530.442 167.65L551.752 222.369L547.145 276.506L530.442 300.955L520.651 295.134L512.588 281.163L506.829 238.086L486.671 210.727L447.507 206.652L413.526 225.28L400.855 238.086L385.305 240.415L381.849 255.55L395.096 276.506L389.337 284.656L380.121 299.209L381.849 320.747L351.324 318.418L330.59 308.522L315.04 268.356L328.287 213.637L363.419 158.918L400.279 134.47Z" fill="black" stroke="black"/>
<defs>
<filter id="filter0_d_298_6768" x="43.126" y="62.2344" width="391.843" height="528.516" filterUnits="userSpaceOnUse" color-interpolation-filters="sRGB">
<feFlood flood-opacity="0" result="BackgroundImageFix"/>
<feColorMatrix in="SourceAlpha" type="matrix" values="0 0 0 0 0 0 0 0 0 0 0 0 0 0 0 0 0 0 127 0" result="hardAlpha"/>
<feOffset dx="-4" dy="4"/>
<feGaussianBlur stdDeviation="4"/>
<feComposite in2="hardAlpha" operator="out"/>
<feColorMatrix type="matrix" values="0 0 0 0 0 0 0 0 0 0 0 0 0 0 0 0 0 0 0.5 0"/>
<feBlend mode="normal" in2="BackgroundImageFix" result="effect1_dropShadow_298_6768"/>
<feBlend mode="normal" in="SourceGraphic" in2="effect1_dropShadow_298_6768" result="shape"/>
</filter>
<filter id="filter1_d_298_6768" x="109.355" y="127.641" width="593.222" height="760.947" filterUnits="userSpaceOnUse" color-interpolation-filters="sRGB">
<feFlood flood-opacity="0" result="BackgroundImageFix"/>
<feColorMatrix in="SourceAlpha" type="matrix" values="0 0 0 0 0 0 0 0 0 0 0 0 0 0 0 0 0 0 127 0" result="hardAlpha"/>
<feOffset dx="-10" dy="4"/>
<feGaussianBlur stdDeviation="4"/>
<feComposite in2="hardAlpha" operator="out"/>
<feColorMatrix type="matrix" values="0 0 0 0 0 0 0 0 0 0 0 0 0 0 0 0 0 0 0.25 0"/>
<feBlend mode="normal" in2="BackgroundImageFix" result="effect1_dropShadow_298_6768"/>
<feBlend mode="normal" in="SourceGraphic" in2="effect1_dropShadow_298_6768" result="shape"/>
</filter>
</defs>
</svg>
