<svg data-v-fde0c5aa="" xmlns="http://www.w3.org/2000/svg" viewBox="0 0 300 300" class="iconAbove"><!----><defs data-v-fde0c5aa=""><!----></defs><rect data-v-fde0c5aa="" fill="#256617" x="0" y="0" width="300px" height="300px" class="logo-background-square"></rect><defs data-v-fde0c5aa=""><!----></defs><g data-v-fde0c5aa="" id="ca290308-a3c1-4f6a-97fc-9e2a6cff22cf" fill="#FFFFFF" transform="matrix(4.428546877208144,0,0,4.428546877208144,19.955714528093342,179.96916904437597)"><path d="M0.01 6.69C0.01 8.53 0.78 9.42 2.32 9.42C3.81 9.42 4.63 8.58 4.63 7.01C4.63 5.66 3.70 4.94 2.77 4.23L2.79 4.23C2.10 3.70 1.41 3.15 1.41 2.44C1.41 1.71 1.74 1.39 2.32 1.39C2.94 1.39 3.23 1.81 3.23 2.73L3.23 2.93C3.23 3.21 3.46 3.43 3.74 3.43L4.13 3.43C4.41 3.43 4.63 3.21 4.63 2.93L4.63 2.73C4.63 0.95 3.84-0.01 2.32-0.01C0.84-0.01 0.01 0.90 0.01 2.48C0.01 3.86 0.98 4.62 1.90 5.35L1.90 5.33C2.59 5.87 3.23 6.38 3.23 7.04C3.23 7.78 2.91 8.04 2.32 8.04C2.13 8.04 1.89 8.01 1.74 7.85C1.54 7.69 1.41 7.36 1.41 6.69L1.41 6.51C1.41 6.23 1.18 6.01 0.91 6.01L0.52 6.01C0.24 6.01 0.01 6.23 0.01 6.51ZM5.11 0.88C5.11 1.16 5.33 1.39 5.61 1.39L6.75 1.39L6.75 8.92C6.75 9.20 6.97 9.42 7.25 9.42L7.63 9.42C7.91 9.42 8.13 9.20 8.13 8.92L8.13 1.39L9.28 1.39C9.56 1.39 9.79 1.16 9.79 0.88L9.79 0.49C9.79 0.21 9.56-0.01 9.28-0.01L5.61-0.01C5.33-0.01 5.11 0.21 5.11 0.49ZM10.78 6.69C10.78 7.80 11.09 8.44 11.52 8.88C11.98 9.32 12.57 9.44 13.08 9.44C13.59 9.44 14.18 9.32 14.64 8.88C15.08 8.44 15.37 7.80 15.37 6.69L15.37 2.73C15.37 0.95 14.62 0 13.08 0C11.55 0 10.78 0.97 10.78 2.73ZM12.18 2.73C12.18 1.82 12.46 1.39 13.08 1.39C13.68 1.39 13.97 1.79 13.97 2.73L13.97 6.69C13.97 7.64 13.66 8.05 13.08 8.05C12.47 8.05 12.18 7.62 12.18 6.69ZM16.44 6.69C16.44 7.80 16.74 8.44 17.18 8.88C17.64 9.32 18.21 9.44 18.75 9.44C19.25 9.44 19.84 9.32 20.30 8.88C20.73 8.44 21.03 7.80 21.03 6.69L21.03 6.50C21.03 6.22 20.80 5.99 20.54 5.99L20.13 5.99C19.85 5.99 19.63 6.22 19.63 6.50L19.63 6.69C19.63 7.20 19.56 7.57 19.39 7.80C19.26 7.94 19.01 8.05 18.75 8.05C18.14 8.05 17.85 7.63 17.85 6.69L17.85 2.73C17.85 1.79 18.16 1.39 18.75 1.39C19.32 1.39 19.63 1.79 19.63 2.73L19.63 2.93C19.63 3.21 19.85 3.43 20.13 3.43L20.54 3.43C20.80 3.43 21.03 3.21 21.03 2.93L21.03 2.73C21.03 1.67 20.73 0.97 20.29 0.55C19.82 0.13 19.26 0 18.75 0C18.21 0 17.65 0.13 17.19 0.55C16.74 0.97 16.44 1.67 16.44 2.73ZM23.37 3.53L23.37 0.50C23.37 0.22 23.14 0 22.86 0L22.47 0C22.19 0 21.97 0.22 21.97 0.50L21.97 8.93C21.97 9.21 22.19 9.44 22.47 9.44L22.86 9.44C23.14 9.44 23.37 9.21 23.37 8.93L23.37 6.16L23.53 5.91L25.41 9.18C25.48 9.31 25.70 9.44 25.84 9.44L26.29 9.44C26.71 9.44 26.94 9.04 26.74 8.68L24.39 4.54L26.73 0.77C26.95 0.41 26.73 0 26.29 0L25.82 0C25.68 0 25.47 0.13 25.40 0.24ZM31.81 4.54C31.81 4.26 31.58 4.03 31.30 4.03L28.25 4.03C27.97 4.03 27.75 4.26 27.75 4.54L27.75 4.91C27.75 5.19 27.97 5.42 28.25 5.42L31.30 5.42C31.58 5.42 31.81 5.19 31.81 4.91ZM37.11 6.58C37.11 5.85 36.92 5.28 36.51 4.84C36.55 4.80 36.58 4.77 36.62 4.73C37.06 4.30 37.21 3.60 37.21 2.73C37.21 0.85 36.61-0.01 34.89-0.01L33.12-0.01C32.84-0.01 32.62 0.21 32.62 0.49L32.62 8.92C32.62 9.20 32.84 9.42 33.12 9.42L33.52 9.42C33.78 9.42 34.01 9.20 34.01 8.92L34.01 5.49L34.64 5.49C35.32 5.49 35.71 5.88 35.71 6.58L35.71 8.92C35.71 9.20 35.94 9.42 36.22 9.42L36.61 9.42C36.89 9.42 37.11 9.20 37.11 8.92ZM34.01 1.39L34.89 1.39C35.62 1.39 35.83 1.78 35.83 2.73C35.83 3.68 35.42 4.07 34.64 4.07L34.01 4.07ZM41.44 9.04C41.50 9.25 41.72 9.44 41.93 9.44L42.34 9.44C42.67 9.44 42.90 9.14 42.83 8.82L40.89 0.39C40.85 0.18 40.61 0 40.40 0L40.10 0C39.89 0 39.66 0.18 39.61 0.39L38.33 5.87L37.66 8.83C37.59 9.16 37.81 9.44 38.15 9.44L38.56 9.44C38.77 9.44 38.99 9.25 39.05 9.04L39.54 6.86L40.96 6.86ZM40.25 3.23C40.52 4.42 40.49 4.80 40.64 5.47L39.86 5.47ZM47.40 9.44C47.68 9.44 47.91 9.21 47.91 8.93L47.91 0.50C47.91 0.22 47.68 0 47.40 0L47.01 0C46.73 0 46.51 0.22 46.51 0.50L46.51 5.12L44.56 0.31C44.51 0.15 44.28 0 44.10 0L43.76 0C43.50 0 43.26 0.22 43.26 0.50L43.26 8.93C43.26 9.21 43.50 9.44 43.76 9.44L44.17 9.44C44.44 9.44 44.67 9.21 44.67 8.93L44.67 4.31L46.62 9.13C46.68 9.28 46.91 9.44 47.08 9.44ZM50.40 3.53L50.40 0.50C50.40 0.22 50.18 0 49.90 0L49.50 0C49.22 0 49.00 0.22 49.00 0.50L49.00 8.93C49.00 9.21 49.22 9.44 49.50 9.44L49.90 9.44C50.18 9.44 50.40 9.21 50.40 8.93L50.40 6.16L50.57 5.91L52.44 9.18C52.51 9.31 52.74 9.44 52.88 9.44L53.33 9.44C53.75 9.44 53.97 9.04 53.77 8.68L51.42 4.54L53.76 0.77C53.98 0.41 53.76 0 53.33 0L52.85 0C52.71 0 52.50 0.13 52.43 0.24ZM54.10 6.69C54.10 8.53 54.87 9.42 56.41 9.42C57.89 9.42 58.72 8.58 58.72 7.01C58.72 5.66 57.78 4.94 56.85 4.23L56.87 4.23C56.18 3.70 55.50 3.15 55.50 2.44C55.50 1.71 55.82 1.39 56.41 1.39C57.02 1.39 57.32 1.81 57.32 2.73L57.32 2.93C57.32 3.21 57.54 3.43 57.82 3.43L58.21 3.43C58.49 3.43 58.72 3.21 58.72 2.93L58.72 2.73C58.72 0.95 57.92-0.01 56.41-0.01C54.92-0.01 54.10 0.90 54.10 2.48C54.10 3.86 55.06 4.62 55.99 5.35L55.99 5.33C56.67 5.87 57.32 6.38 57.32 7.04C57.32 7.78 56.99 8.04 56.41 8.04C56.21 8.04 55.97 8.01 55.82 7.85C55.62 7.69 55.50 7.36 55.50 6.69L55.50 6.51C55.50 6.23 55.26 6.01 54.99 6.01L54.60 6.01C54.32 6.01 54.10 6.23 54.10 6.51Z"></path></g><defs data-v-fde0c5aa=""><!----></defs><g data-v-fde0c5aa="" id="8bf88125-7878-415e-a5a8-8837dbea28a1" stroke="none" fill="#FFFFFF" transform="matrix(0.9937152777530974,0,0,0.9937152777530974,100.25682496169364,67.24388550037541)"><path clip-rule="evenodd" d="M71.312 62.629c-.607.13-1.148.191-1.644.374a1.304 1.304 0 0 0-.666.625c-.893 1.97-1.742 3.96-2.621 5.937-.106.238-.298.446-.474.647-.664.75-1.1 1.59-1.234 2.603-.14 1.053-.515 1.989-1.315 2.781-.963.953-1.271 2.287-1.699 3.529-.771 2.23-.609 4.404.406 6.54.353.742.599 1.542.815 2.337.055.2-.155.661-.313.697-.591.134-.512.605-.631.988-.336 1.089-.598 2.211-1.052 3.249-.227.517-.738 1.013-1.246 1.28-1.917 1.013-3.98 1.269-6.116.91-.184-.032-.344-.168-.523-.236-.314-.118-.635-.314-.952-.313-.895 0-1.242-.318-.929-1.143.459-1.2 1.043-2.354 1.565-3.532.155-.346.238-.732.436-1.052.315-.508.688-.981 1.058-1.451 2.072-2.654 3.543-5.6 4.324-8.879.323-1.357.302-2.707-.154-4.035-.505-1.471-.289-2.941-.004-4.409.201-1.049.249-2.081-.231-3.156-.591.213-1.209.359-1.754.646-1.42.748-2.809.599-4.224.013-1.504-.621-3.003-1.185-4.314-2.249-.897-.729-2.116-1.062-3.212-1.583-.69 1.341-1.362 2.751-2.135 4.104-.344.602-.903 1.076-1.342 1.627-.295.371-.65.739-.803 1.17-.427 1.207-.979 2.283-1.85 3.273-1.845 2.097-2.898 4.548-2.736 7.429.071 1.266.245 2.563.05 3.799-.406 2.566-1.775 3.894-4.484 4.237-.916.115-1.863.066-2.788-.005-.726-.056-1.45-.225-2.154-.416-.478-.127-.379-.527-.174-.831.615-.909 1.271-1.79 1.885-2.701.165-.245.237-.551.354-.828.073-.174.103-.412.233-.503 2.18-1.53 3.394-3.758 4.257-6.159.598-1.665.841-3.405.569-5.244-.202-1.369.089-2.808.114-4.217.012-.673.071-1.407-.163-2.008-.668-1.706-.735-3.445-.455-5.197.184-1.156-.128-2.176-.752-3.034-1.689-2.324-2.576-4.958-3.2-7.706-.294-1.297-.927-2.397-1.753-3.412-.244-.298-.451-.626-.702-.979-1.294.055-2.645.172-3.897-.482-.042-.021-.101-.058-.135-.044-1.409.546-2.743-.012-4.067-.337-.966-.237-2.041-.494-2.775-1.098-.849-.697-1.436-1.748-2.022-2.716-.388-.641-.091-1.297.448-1.773.458-.404.634-.879.657-1.48.073-1.923.481-3.762 1.383-5.49.525-1.006-.189-1.974-1.293-1.9-.954.063-1.895.001-2.766-.483-.629-.35-1.006-.865-1.035-1.568-.051-1.203.335-2.285 1.199-3.121.308-.297.82-.384 1.32-.6-.167-.043-.282-.104-.394-.096-2.693.18-5.376.197-8.005-.539-1.914-.534-3.619-1.373-4.396-3.375-.194-.5-.256-1.052-.379-1.58l.372-.275c.141.258.235.562.431.769 1.489 1.58 3.317 2.162 5.453 1.796 2.529-.434 5.065-.827 7.582-1.316 1.06-.207 2.198-.284 3.073-1.056.197-.174.388-.369.527-.59.754-1.204 1.662-2.189 3.046-2.727 1.49-.579 2.926-1.296 4.398-1.958l-9.245-2.71.038-.253c.346-.033.691-.096 1.036-.093 4.028.042 8.058.074 12.086.159.616.013 1.319.073 1.594.889.067.198.462.287.71.419.038.02.097.001.146.004.713.053 1.575-.276 1.985.627.307.675.515 1.395.763 2.096.032.089.038.188.045.223 1.572-.195 3.114-.529 4.66-.543 1.75-.016 3.504.249 5.255.403 1.581.138 3.157.345 4.741.429 2.659.142 5.362.053 7.913.916 1.347.457 2.721.592 4.081.884 3.251.7 5.895 2.36 7.566 5.284.903 1.579 2.153 2.711 3.602 3.749 1.806 1.295 3.521 2.718 5.234 4.135.501.415.943.949 1.27 1.512.424.725.982 1.063 1.8 1.151.991.108 1.97.342 2.961.455.374.043.79-.039 1.151-.169.979-.352 1.935-.772 2.909-1.143 1.911-.729 4.12 1.096 4.762 2.829 1.146 3.104 1.59 6.348 1.865 9.615.104 1.197.513 2.083 1.553 2.708 1.212.729 2.101 1.77 2.521 3.128.202.662.205 1.386.302 2.109l1.063.227c.131.732-.33 1.117-.834 1.397-1.064.592-2.215.74-3.389.38-.519-.161-.739.02-.819.485-.47 2.798-1.499 5.491-1.27 8.419.127 1.663-.207 3.354.295 5.013.164.542-.045 1.06-.396 1.566-.315.453-.511 1.054-.573 1.608-.092.822-.054 1.664-.008 2.494.041.739-.195 1.345-.703 1.851-.409.41-.418.858-.199 1.345.22.489.441.98.687 1.459.739 1.446.652 2.895.041 4.354-.037.092-.108.179-.111.27-.031 1.261-1.018 1.5-1.919 1.609-.88.107-1.798-.052-2.695-.114-.438-.03-.87-.135-1.306-.155-.511-.026-.788-.228-.725-.769.153-1.283.459-2.501 1.2-3.6a41.89 41.89 0 0 0 2.017-3.315c.202-.368.165-.871.22-1.314.113-.888.226-1.774.314-2.664.132-1.329.319-2.661.323-3.993.002-.489-.35-1.077-.713-1.452-1.328-1.37-2.313-2.946-3.207-4.618-.745-1.394-1.65-2.703-2.497-4.041-.113-.181-.288-.336-.461-.468-.652-.496-1.329-.327-1.865.255-.753.818-.991 1.619-.443 2.65.192.363.226.862.192 1.287-.127 1.508-1.426 2.76-3.376 1.464-.443 1.033-1.148 2.032-1.239 3.085-.09 1.023-.534 1.821-.811 2.728-.197.652-.126 1.408-.072 2.109.083 1.096-.087 2.067-.842 2.93-.229.263-.36.722-.338 1.077.066 1.044.17 2.095.376 3.118.369 1.839-.611 3.865-2.942 3.644-1.093-.104-2.186-.192-3.275-.326-.132-.017-.276-.266-.332-.434-.036-.111.084-.269.129-.405.704-2.115 1.999-3.86 3.46-5.494.567-.634.916-1.226.598-2.151-.162-.474.059-1.093.155-1.637.146-.836.378-1.66.483-2.501.049-.388-.11-.805-.184-1.207-.036-.191-.157-.387-.13-.563.241-1.672-.647-3.123-.9-4.696-.064-.384-.172-.756-.275-1.198zM92.003 42.49c-.307-2.271-.582-4.52-1.579-6.576-.341-.706-.928-1.426-1.843-1.319-.545.063-1.05.469-1.546.708l4.968 7.187zM13.888 24.908a5.157 5.157 0 0 1-.021.174c.631.098 1.261.196 1.957.306l-.108-.699-1.828.219z"></path></g><!----></svg>