<svg width="72" height="72" viewBox="0 0 72 72" fill="none" xmlns="http://www.w3.org/2000/svg">
<path d="M65.4165 30.1245H63V30H36V42H52.9545C50.481 48.9855 43.8345 54 36 54C26.0595 54 18 45.9405 18 36C18 26.0595 26.0595 18 36 18C40.5885 18 44.763 19.731 47.9415 22.5585L56.427 14.073C51.069 9.0795 43.902 6 36 6C19.4325 6 6 19.4325 6 36C6 52.5675 19.4325 66 36 66C52.5675 66 66 52.5675 66 36C66 33.9885 65.793 32.025 65.4165 30.1245Z" fill="#FFC107"/>
<path d="M9.45898 22.0365L19.3155 29.265C21.9825 22.662 28.4415 18 36 18C40.5885 18 44.763 19.731 47.9415 22.5585L56.427 14.073C51.069 9.0795 43.902 6 36 6C24.477 6 14.484 12.5055 9.45898 22.0365Z" fill="#FF3D00"/>
<path d="M36 65.9991C43.749 65.9991 50.79 63.0336 56.1135 58.2111L46.8285 50.3541C43.7153 52.7217 39.9112 54.0022 36 53.9991C28.197 53.9991 21.5715 49.0236 19.0755 42.0801L9.29248 49.6176C14.2575 59.3331 24.3405 65.9991 36 65.9991Z" fill="#4CAF50"/>
<path d="M65.4165 30.1245H63V30H36V42H52.9545C51.7713 45.3246 49.64 48.2298 46.824 50.3565L46.8285 50.3535L56.1135 58.2105C55.4565 58.8075 66 51 66 36C66 33.9885 65.793 32.025 65.4165 30.1245Z" fill="#1976D2"/>
</svg>
