<svg width="72" height="72" viewBox="0 0 72 72" fill="none" xmlns="http://www.w3.org/2000/svg">
<g filter="url(#filter0_d_298_6730)">
<path d="M32.05 62.4C23.35 54.375 4 34.925 4 24C4 10.745 18.3267 0 36 0C53.6667 0 68 10.745 68 24C68 34.925 48.5 54.375 39.95 62.4C37.9 64.3125 34.1 64.3125 32.05 62.4ZM36 32C41.8833 32 46.6667 28.4125 46.6667 24C46.6667 19.5875 41.8833 16 36 16C30.1167 16 25.3333 19.5875 25.3333 24C25.3333 28.4125 30.1167 32 36 32Z" fill="#3DAE23"/>
</g>
<defs>
<filter id="filter0_d_298_6730" x="0" y="0" width="72" height="72" filterUnits="userSpaceOnUse" color-interpolation-filters="sRGB">
<feFlood flood-opacity="0" result="BackgroundImageFix"/>
<feColorMatrix in="SourceAlpha" type="matrix" values="0 0 0 0 0 0 0 0 0 0 0 0 0 0 0 0 0 0 127 0" result="hardAlpha"/>
<feOffset dy="4"/>
<feGaussianBlur stdDeviation="2"/>
<feComposite in2="hardAlpha" operator="out"/>
<feColorMatrix type="matrix" values="0 0 0 0 0 0 0 0 0 0 0 0 0 0 0 0 0 0 0.25 0"/>
<feBlend mode="normal" in2="BackgroundImageFix" result="effect1_dropShadow_298_6730"/>
<feBlend mode="normal" in="SourceGraphic" in2="effect1_dropShadow_298_6730" result="shape"/>
</filter>
</defs>
</svg>
