<svg width="80" height="80" viewBox="0 0 80 80" fill="none" xmlns="http://www.w3.org/2000/svg">
<path d="M64.4909 18.5189C64.4909 18.5189 61.6198 20.8333 57.592 21.25C57.592 21.25 51.2498 14.1667 42.1754 20.3244C38.102 23.1944 37.7309 29.2589 38.4254 31.4356C38.4254 31.4356 26.1109 32.4078 15.3698 19.8144C15.3698 19.8144 10.5554 28.1478 18.5187 34.8144C18.5187 34.8144 16.1643 35.1856 13.9276 33.3333C13.9276 33.3333 12.8698 41.9444 22.4998 44.3522C22.4998 44.3522 21.852 45.4633 17.9631 44.3522C17.9631 44.3522 18.6109 51.3889 27.7776 52.4078C27.7776 52.4078 22.8254 57.5 11.6909 56.8522C11.6909 56.8522 30.092 70.6478 49.9998 53.9811C61.1109 44.5367 60.7409 30.9256 60.5554 28.8889C60.5554 28.8889 64.9443 25.5556 66.0831 23.4256C66.0831 23.4256 62.6854 24.5367 59.9076 24.5367C59.9076 24.5367 63.6109 22.5922 64.4909 18.5189V18.5189Z" fill="#61B2E4"/>
<path d="M64.4909 18.5189C64.4909 18.5189 61.6198 20.8333 57.592 21.25C57.592 21.25 51.2498 14.1667 42.1754 20.3244C38.102 23.1944 37.7309 29.2589 38.4254 31.4356C38.4254 31.4356 26.1109 32.4078 15.3698 19.8144C15.3698 19.8144 10.5554 28.1478 18.5187 34.8144C18.5187 34.8144 16.1643 35.1856 13.9276 33.3333C13.9276 33.3333 12.8698 41.9444 22.4998 44.3522C22.4998 44.3522 21.852 45.4633 17.9631 44.3522C17.9631 44.3522 18.6109 51.3889 27.7776 52.4078C27.7776 52.4078 22.8254 57.5 11.6909 56.8522C11.6909 56.8522 30.092 70.6478 49.9998 53.9811C61.1109 44.5367 60.7409 30.9256 60.5554 28.8889C60.5554 28.8889 64.9443 25.5556 66.0831 23.4256C66.0831 23.4256 62.6854 24.5367 59.9076 24.5367C59.9076 24.5367 63.6109 22.5922 64.4909 18.5189V18.5189Z" stroke="black" stroke-width="2" stroke-miterlimit="10" stroke-linecap="round" stroke-linejoin="round"/>
</svg>
