<svg width="46" height="46" viewBox="0 0 46 46" fill="none" xmlns="http://www.w3.org/2000/svg">
<path d="M40.7426 21.0112C41.6511 22.1995 41.6511 23.8037 40.7426 24.9902C37.881 28.7257 31.0155 36.4173 23 36.4173C14.9845 36.4173 8.11898 28.7257 5.2574 24.9902C4.81538 24.4212 4.57544 23.7212 4.57544 23.0007C4.57544 22.2801 4.81538 21.5801 5.2574 21.0112C8.11898 17.2756 14.9845 9.58398 23 9.58398C31.0155 9.58398 37.881 17.2756 40.7426 21.0112V21.0112Z" stroke="black" stroke-width="2" stroke-linecap="round" stroke-linejoin="round"/>
<path d="M23 28.75C26.1756 28.75 28.75 26.1756 28.75 23C28.75 19.8244 26.1756 17.25 23 17.25C19.8244 17.25 17.25 19.8244 17.25 23C17.25 26.1756 19.8244 28.75 23 28.75Z" stroke="black" stroke-width="2" stroke-linecap="round" stroke-linejoin="round"/>
</svg>
