<svg width="46" height="46" viewBox="0 0 46 46" fill="none" xmlns="http://www.w3.org/2000/svg">
<path d="M15.433 11.1875C17.8152 10.129 20.3932 9.58242 23 9.58325C28.6637 9.58325 33.1756 12.1037 36.5317 15.0726C39.8973 18.0492 42.0248 21.411 42.8701 22.8926C42.8894 22.9244 42.9 22.9608 42.9007 22.998C42.9 23.0385 42.8888 23.0781 42.8682 23.113C42.0063 24.6064 41.0256 26.0281 39.9357 27.3642C39.809 27.5096 39.713 27.679 39.6532 27.8623C39.5934 28.0457 39.5711 28.2391 39.5877 28.4312C39.6042 28.6233 39.6592 28.8102 39.7494 28.9806C39.8396 29.151 39.9632 29.3015 40.1128 29.4232C40.2624 29.5449 40.4349 29.6352 40.6201 29.6888C40.8053 29.7425 40.9994 29.7583 41.1909 29.7353C41.3823 29.7124 41.5672 29.6512 41.7345 29.5553C41.9018 29.4594 42.0481 29.3309 42.1647 29.1773C43.3547 27.7198 44.4251 26.1687 45.3656 24.539C45.6344 24.0721 45.7761 23.5428 45.7764 23.004C45.7768 22.4652 45.6358 21.9358 45.3675 21.4685C44.4379 19.8393 42.1283 16.1843 38.4368 12.9202C34.7377 9.64842 29.578 6.70825 23 6.70825C19.7512 6.70825 16.8379 7.42508 14.2753 8.554C13.9282 8.70874 13.6565 8.99462 13.5197 9.34913C13.3828 9.70364 13.3918 10.0979 13.5448 10.4458C13.6979 10.7936 13.9824 11.0667 14.3362 11.2054C14.6901 11.344 15.0844 11.3369 15.433 11.1856V11.1875Z" fill="black"/>
<path fill-rule="evenodd" clip-rule="evenodd" d="M36.7348 34.4752C33.212 37.1451 28.6216 39.2917 23 39.2917C16.422 39.2917 11.2604 36.3516 7.56316 33.0817C3.87166 29.8157 1.56016 26.1587 0.632492 24.5296C0.364748 24.0628 0.22403 23.5341 0.224366 22.996C0.224702 22.4579 0.366082 21.9293 0.634409 21.4629C2.34964 18.4907 4.49164 15.7863 6.99199 13.4359L2.52424 10.2772C2.36416 10.1708 2.22706 10.0333 2.12106 9.87286C2.01506 9.71246 1.94231 9.53242 1.90713 9.34341C1.87194 9.1544 1.87503 8.96024 1.9162 8.77244C1.95738 8.58464 2.03581 8.40701 2.14686 8.25006C2.2579 8.09311 2.39931 7.96003 2.56269 7.8587C2.72608 7.75736 2.90814 7.68983 3.09809 7.66011C3.28804 7.63038 3.48202 7.63906 3.66856 7.68563C3.85509 7.73221 4.03039 7.81572 4.18408 7.93125L43.4757 35.7229C43.6358 35.8294 43.7729 35.9669 43.8789 36.1273C43.9849 36.2877 44.0577 36.4677 44.0929 36.6568C44.128 36.8458 44.125 37.0399 44.0838 37.2277C44.0426 37.4155 43.9642 37.5931 43.8531 37.7501C43.7421 37.9071 43.6007 38.0401 43.4373 38.1415C43.2739 38.2428 43.0918 38.3103 42.9019 38.3401C42.7119 38.3698 42.518 38.3611 42.3314 38.3145C42.1449 38.268 41.9696 38.1844 41.8159 38.0689L36.7348 34.4752ZM9.39549 15.1379C6.07966 18.0915 3.97516 21.4112 3.13183 22.8889C3.11118 22.9231 3.09993 22.9621 3.09924 23.002C3.09924 23.0307 3.10499 23.0672 3.12991 23.1074C3.97516 24.5909 6.10266 27.9508 9.46833 30.9274C12.8225 33.8963 17.3362 36.4167 23 36.4167C27.4735 36.4167 31.2225 34.8451 34.2585 32.7233L27.5195 27.9566C26.3894 28.9883 24.9405 29.6027 23.4132 29.6977C21.8859 29.7927 20.372 29.3628 19.1227 28.4791C17.8734 27.5954 16.9637 26.3112 16.5447 24.8394C16.1256 23.3677 16.2223 21.7969 16.8187 20.3877L9.39549 15.1398V15.1379Z" fill="black"/>
</svg>
